<?xml version="1.0" encoding="UTF-8" standalone="no"?>
<svg
   xmlns:dc="http://purl.org/dc/elements/1.1/"
   xmlns:cc="http://creativecommons.org/ns#"
   xmlns:rdf="http://www.w3.org/1999/02/22-rdf-syntax-ns#"
   xmlns:svg="http://www.w3.org/2000/svg"
   xmlns="http://www.w3.org/2000/svg"
   viewBox="0 0 471.18134 266.45734"
   height="266.45734"
   width="471.18134"
   xml:space="preserve"
   id="svg2"
   version="1.1"><metadata
     id="metadata8"><rdf:RDF><cc:Work
         rdf:about=""><dc:format>image/svg+xml</dc:format><dc:type
           rdf:resource="http://purl.org/dc/dcmitype/StillImage" /></cc:Work></rdf:RDF></metadata><defs
     id="defs6"><clipPath
       id="clipPath14"
       clipPathUnits="userSpaceOnUse"><path
         id="path12"
         d="M 0,0 H 960 V 540 H 0 Z" /></clipPath><clipPath
       id="clipPath22"
       clipPathUnits="userSpaceOnUse"><path
         style="clip-rule:evenodd"
         id="path20"
         d="M 0,0 H 960 V 540 H 0 Z" /></clipPath><clipPath
       id="clipPath32"
       clipPathUnits="userSpaceOnUse"><path
         style="clip-rule:evenodd"
         id="path30"
         d="M 0,0 H 960 V 540 H 0 Z" /></clipPath><clipPath
       id="clipPath44"
       clipPathUnits="userSpaceOnUse"><path
         style="clip-rule:evenodd"
         id="path42"
         d="M 0,0 H 960 V 540 H 0 Z" /></clipPath><clipPath
       id="clipPath56"
       clipPathUnits="userSpaceOnUse"><path
         style="clip-rule:evenodd"
         id="path54"
         d="M 0,0 H 960 V 540 H 0 Z" /></clipPath><clipPath
       id="clipPath68"
       clipPathUnits="userSpaceOnUse"><path
         style="clip-rule:evenodd"
         id="path66"
         d="M 0,0 H 960 V 540 H 0 Z" /></clipPath><clipPath
       id="clipPath80"
       clipPathUnits="userSpaceOnUse"><path
         style="clip-rule:evenodd"
         id="path78"
         d="M 0,0 H 960 V 540 H 0 Z" /></clipPath><clipPath
       id="clipPath92"
       clipPathUnits="userSpaceOnUse"><path
         style="clip-rule:evenodd"
         id="path90"
         d="M 0,0 H 960 V 540 H 0 Z" /></clipPath></defs><g
     clip-path="url(#clipPath14)"
     transform="matrix(1.3333333,0,0,-1.3333333,0,720)"
     id="g10"><g
       transform="matrix(1,0,0,-1,0,540)"
       id="g16"><g
         clip-path="url(#clipPath22)"
         id="g18"><path
           id="path24"
           style="fill:#fafafa;fill-opacity:1;fill-rule:evenodd;stroke:none"
           d="M 0,0 H 960 V 540 H 0 Z" /></g></g><g
       transform="matrix(1,0,0,-1,-304.14014,738.17877)"
       id="g26"><g
         clip-path="url(#clipPath32)"
         id="g28"><g
           transform="translate(546.704,375.182)"
           id="g34"><path
             id="path36"
             style="fill:#364d76;fill-opacity:1;fill-rule:evenodd;stroke:none"
             d="m 0,0 c -26.878,21.719 -26.878,21.719 -26.878,21.719 4.032,-12.217 4.032,-12.217 4.032,-12.217 -34.942,-12.217 -60.476,-46.153 -60.476,-86.876 33.598,0 33.598,0 33.598,0 0,25.791 16.126,46.153 38.973,54.297 4.031,-13.574 4.031,-13.574 4.031,-13.574 L 0,0" /></g></g></g><g
       transform="matrix(1,0,0,-1,-304.14014,738.17877)"
       id="g38"><g
         clip-path="url(#clipPath44)"
         id="g40"><g
           transform="translate(634.061,307.299)"
           id="g46"><path
             id="path48"
             style="fill:#33b048;fill-opacity:1;fill-rule:evenodd;stroke:none"
             d="M 0,0 C 21.505,27.148 21.505,27.148 21.505,27.148 9.409,23.076 9.409,23.076 9.409,23.076 -2.688,58.368 -37.633,84.159 -76.61,84.159 c 0,-33.935 0,-33.935 0,-33.935 24.192,0 45.697,-16.289 53.762,-39.365 C -36.289,6.787 -36.289,6.787 -36.289,6.787 L 0,0" /></g></g></g><g
       transform="matrix(1,0,0,-1,-304.14014,738.17877)"
       id="g50"><g
         clip-path="url(#clipPath56)"
         id="g52"><g
           transform="translate(564.15,221.83)"
           id="g58"><path
             id="path60"
             style="fill:#2576b5;fill-opacity:1;fill-rule:evenodd;stroke:none"
             d="M 0,0 C 26.894,-21.719 26.894,-21.719 26.894,-21.719 22.86,-9.502 22.86,-9.502 22.86,-9.502 59.167,2.715 84.717,36.651 84.717,77.374 c -34.963,0 -34.963,0 -34.963,0 C 49.754,52.94 33.618,31.221 12.102,23.076 6.723,36.651 6.723,36.651 6.723,36.651 L 0,0" /></g></g></g><g
       transform="matrix(1,0,0,-1,-304.14014,738.17877)"
       id="g62"><g
         clip-path="url(#clipPath68)"
         id="g64"><g
           transform="translate(480.817,289.713)"
           id="g70"><path
             id="path72"
             style="fill:#1d2e4b;fill-opacity:1;fill-rule:evenodd;stroke:none"
             d="m 0,0 c 21.505,-27.148 21.505,-27.148 21.505,-27.148 -12.097,4.072 -12.097,4.072 -12.097,4.072 -12.096,-35.292 -47.042,-61.083 -86.019,-61.083 0,33.935 0,33.935 0,33.935 24.193,0 45.698,16.289 53.762,39.365 -13.441,4.072 -13.441,4.072 -13.441,4.072 L 0,0" /></g></g></g><g
       transform="matrix(1,0,0,-1,-304.14014,738.17877)"
       id="g74"><g
         clip-path="url(#clipPath80)"
         id="g76"><g
           transform="translate(326.199,311.486)"
           id="g82"><path
             id="path84"
             style="fill:#33b048;fill-opacity:1;fill-rule:evenodd;stroke:none"
             d="m 0,0 c -21.505,27.103 -21.505,27.103 -21.505,27.103 12.097,-4.066 12.097,-4.066 12.097,-4.066 12.096,35.234 47.042,60.982 86.019,60.982 0,-33.879 0,-33.879 0,-33.879 C 52.418,50.14 30.913,33.878 22.849,10.841 36.29,6.775 36.29,6.775 36.29,6.775 L 0,0" /></g></g></g><g
       transform="matrix(1,0,0,-1,-304.14014,738.17877)"
       id="g86"><g
         clip-path="url(#clipPath92)"
         id="g88"><g
           transform="translate(394.715,223.226)"
           id="g94"><path
             id="path96"
             style="fill:#2576b5;fill-opacity:1;fill-rule:evenodd;stroke:none"
             d="m 0,0 c -28.192,-21.719 -28.192,-21.719 -28.192,-21.719 5.37,12.217 5.37,12.217 5.37,12.217 -36.248,12.217 -61.755,46.152 -61.755,86.875 33.562,0 33.562,0 33.562,0 0,-25.791 16.11,-46.152 38.933,-54.297 4.027,13.574 4.027,13.574 4.027,13.574 L 0,0" /></g></g></g><text
       id="text102"
       style="font-variant:normal;font-weight:normal;font-stretch:normal;font-size:17.99279785px;font-family:'Microsoft YaHei';-inkscape-font-specification:MicrosoftYaHeiLight;writing-mode:lr-tb;fill:#ffffff;fill-opacity:1;fill-rule:nonzero;stroke:none"
       transform="matrix(0.94037623,0.34013608,0.34013608,-0.94037623,24.3589,396.0388)"><tspan
         id="tspan98"
         y="0"
         x="0">0</tspan><tspan
         id="tspan100"
         y="-9.9959994e-05"
         x="9.9966488">1</tspan></text>
<text
       id="text108"
       style="font-variant:normal;font-weight:normal;font-stretch:normal;font-size:18.05750847px;font-family:'Microsoft YaHei';-inkscape-font-specification:MicrosoftYaHeiLight;writing-mode:lr-tb;fill:#ffffff;fill-opacity:1;fill-rule:nonzero;stroke:none"
       transform="matrix(0.39872611,-0.91707006,-0.91707006,-0.39872611,58.8729,514.3188)"><tspan
         id="tspan104"
         y="0"
         x="0">0</tspan><tspan
         id="tspan106"
         y="0.00035111821"
         x="10.030645">2</tspan></text>
<text
       id="text114"
       style="font-variant:normal;font-weight:normal;font-stretch:normal;font-size:18.21471977px;font-family:'Microsoft YaHei';-inkscape-font-specification:MicrosoftYaHeiLight;writing-mode:lr-tb;fill:#ffffff;fill-opacity:1;fill-rule:nonzero;stroke:none"
       transform="matrix(0.9486833,0.31622777,0.31622777,-0.9486833,160.3499,461.2358)"><tspan
         id="tspan110"
         y="0"
         x="0">0</tspan><tspan
         id="tspan112"
         y="0.00096133241"
         x="10.118074">3</tspan></text>
<text
       id="text120"
       style="font-variant:normal;font-weight:normal;font-stretch:normal;font-size:17.90615463px;font-family:'Microsoft YaHei';-inkscape-font-specification:MicrosoftYaHeiLight;writing-mode:lr-tb;fill:#ffffff;fill-opacity:1;fill-rule:nonzero;stroke:none"
       transform="matrix(0.86450719,-0.50262046,-0.50262046,-0.86450719,209.6899,371.0658)"><tspan
         id="tspan116"
         y="0"
         x="0">0</tspan><tspan
         id="tspan118"
         y="0.00099478639"
         x="9.9486103">4</tspan></text>
<text
       id="text126"
       style="font-variant:normal;font-weight:normal;font-stretch:normal;font-size:17.87355614px;font-family:'Microsoft YaHei';-inkscape-font-specification:MicrosoftYaHeiLight;writing-mode:lr-tb;fill:#ffffff;fill-opacity:1;fill-rule:nonzero;stroke:none"
       transform="matrix(0.94664991,-0.3222638,-0.3222638,-0.94664991,310.1849,406.6698)"><tspan
         id="tspan122"
         y="0"
         x="0">0</tspan><tspan
         id="tspan124"
         y="-0.0014398142"
         x="9.9299021">5</tspan></text>
<text
       id="text132"
       style="font-variant:normal;font-weight:normal;font-stretch:normal;font-size:17.99279785px;font-family:'Microsoft YaHei';-inkscape-font-specification:MicrosoftYaHeiLight;writing-mode:lr-tb;fill:#ffffff;fill-opacity:1;fill-rule:nonzero;stroke:none"
       transform="matrix(0.34013608,0.94037623,0.94037623,-0.34013608,283.6639,497.3708)"><tspan
         id="tspan128"
         y="0"
         x="0">0</tspan><tspan
         id="tspan130"
         y="9.9959994e-05"
         x="9.9966488">6</tspan></text>
</g></svg>