<?xml version="1.0" encoding="UTF-8" standalone="no"?>
<svg
   xmlns:dc="http://purl.org/dc/elements/1.1/"
   xmlns:cc="http://creativecommons.org/ns#"
   xmlns:rdf="http://www.w3.org/1999/02/22-rdf-syntax-ns#"
   xmlns:svg="http://www.w3.org/2000/svg"
   xmlns="http://www.w3.org/2000/svg"
   viewBox="0 0 1015.4329 51.022667"
   height="51.022667"
   width="1015.4329"
   xml:space="preserve"
   id="svg2"
   version="1.1"><metadata
     id="metadata8"><rdf:RDF><cc:Work
         rdf:about=""><dc:format>image/svg+xml</dc:format><dc:type
           rdf:resource="http://purl.org/dc/dcmitype/StillImage" /></cc:Work></rdf:RDF></metadata><defs
     id="defs6"><clipPath
       id="clipPath14"
       clipPathUnits="userSpaceOnUse"><path
         id="path12"
         d="M 0,0 H 960 V 540 H 0 Z" /></clipPath><clipPath
       id="clipPath22"
       clipPathUnits="userSpaceOnUse"><path
         style="clip-rule:evenodd"
         id="path20"
         d="M 0,0 H 960 V 540 H 0 Z" /></clipPath><clipPath
       id="clipPath32"
       clipPathUnits="userSpaceOnUse"><path
         style="clip-rule:evenodd"
         id="path30"
         d="M 0,0 H 960 V 540 H 0 Z" /></clipPath><clipPath
       id="clipPath44"
       clipPathUnits="userSpaceOnUse"><path
         style="clip-rule:evenodd"
         id="path42"
         d="M 0,0 H 960 V 540 H 0 Z" /></clipPath><clipPath
       id="clipPath56"
       clipPathUnits="userSpaceOnUse"><path
         style="clip-rule:evenodd"
         id="path54"
         d="M 0,0 H 960 V 540 H 0 Z" /></clipPath><clipPath
       id="clipPath68"
       clipPathUnits="userSpaceOnUse"><path
         style="clip-rule:evenodd"
         id="path66"
         d="M 0,0 H 960 V 540 H 0 Z" /></clipPath><clipPath
       id="clipPath80"
       clipPathUnits="userSpaceOnUse"><path
         style="clip-rule:evenodd"
         id="path78"
         d="M 0,0 H 960 V 540 H 0 Z" /></clipPath><clipPath
       id="clipPath92"
       clipPathUnits="userSpaceOnUse"><path
         style="clip-rule:evenodd"
         id="path90"
         d="M 0,0 H 960 V 540 H 0 Z" /></clipPath><clipPath
       id="clipPath104"
       clipPathUnits="userSpaceOnUse"><path
         style="clip-rule:evenodd"
         id="path102"
         d="M 0,0 H 960 V 540 H 0 Z" /></clipPath><clipPath
       id="clipPath114"
       clipPathUnits="userSpaceOnUse"><path
         style="clip-rule:evenodd"
         id="path112"
         d="M 0,0 H 960 V 540 H 0 Z" /></clipPath><clipPath
       id="clipPath126"
       clipPathUnits="userSpaceOnUse"><path
         style="clip-rule:evenodd"
         id="path124"
         d="M 0,0 H 960 V 540 H 0 Z" /></clipPath><clipPath
       id="clipPath138"
       clipPathUnits="userSpaceOnUse"><path
         style="clip-rule:evenodd"
         id="path136"
         d="M 0,0 H 960 V 540 H 0 Z" /></clipPath><clipPath
       id="clipPath148"
       clipPathUnits="userSpaceOnUse"><path
         style="clip-rule:evenodd"
         id="path146"
         d="M 0,0 H 960 V 540 H 0 Z" /></clipPath><clipPath
       id="clipPath160"
       clipPathUnits="userSpaceOnUse"><path
         style="clip-rule:evenodd"
         id="path158"
         d="M 0,0 H 960 V 540 H 0 Z" /></clipPath><clipPath
       id="clipPath172"
       clipPathUnits="userSpaceOnUse"><path
         style="clip-rule:evenodd"
         id="path170"
         d="M 0,0 H 960 V 540 H 0 Z" /></clipPath><clipPath
       id="clipPath182"
       clipPathUnits="userSpaceOnUse"><path
         style="clip-rule:evenodd"
         id="path180"
         d="M 0,0 H 960 V 540 H 0 Z" /></clipPath><clipPath
       id="clipPath194"
       clipPathUnits="userSpaceOnUse"><path
         style="clip-rule:evenodd"
         id="path192"
         d="M 0,0 H 960 V 540 H 0 Z" /></clipPath><clipPath
       id="clipPath206"
       clipPathUnits="userSpaceOnUse"><path
         style="clip-rule:evenodd"
         id="path204"
         d="M 0,0 H 960 V 540 H 0 Z" /></clipPath><clipPath
       id="clipPath216"
       clipPathUnits="userSpaceOnUse"><path
         style="clip-rule:evenodd"
         id="path214"
         d="M 0,0 H 960 V 540 H 0 Z" /></clipPath><clipPath
       id="clipPath228"
       clipPathUnits="userSpaceOnUse"><path
         style="clip-rule:evenodd"
         id="path226"
         d="M 0,0 H 960 V 540 H 0 Z" /></clipPath><clipPath
       id="clipPath240"
       clipPathUnits="userSpaceOnUse"><path
         style="clip-rule:evenodd"
         id="path238"
         d="M 0,0 H 960 V 540 H 0 Z" /></clipPath><clipPath
       id="clipPath252"
       clipPathUnits="userSpaceOnUse"><path
         style="clip-rule:evenodd"
         id="path250"
         d="M 0,0 H 960 V 540 H 0 Z" /></clipPath><clipPath
       id="clipPath262"
       clipPathUnits="userSpaceOnUse"><path
         style="clip-rule:evenodd"
         id="path260"
         d="M 0,0 H 960 V 540 H 0 Z" /></clipPath><clipPath
       id="clipPath274"
       clipPathUnits="userSpaceOnUse"><path
         style="clip-rule:evenodd"
         id="path272"
         d="M 0,0 H 960 V 540 H 0 Z" /></clipPath><clipPath
       id="clipPath286"
       clipPathUnits="userSpaceOnUse"><path
         style="clip-rule:evenodd"
         id="path284"
         d="M 0,0 H 960 V 540 H 0 Z" /></clipPath><clipPath
       id="clipPath296"
       clipPathUnits="userSpaceOnUse"><path
         style="clip-rule:evenodd"
         id="path294"
         d="M 0,0 H 960 V 540 H 0 Z" /></clipPath><clipPath
       id="clipPath308"
       clipPathUnits="userSpaceOnUse"><path
         style="clip-rule:evenodd"
         id="path306"
         d="M 0,0 H 960 V 540 H 0 Z" /></clipPath></defs><g
     clip-path="url(#clipPath14)"
     transform="matrix(1.3333333,0,0,-1.3333333,-124.7244,364.724)"
     id="g10"><g
       transform="matrix(1,0,0,-1,0,555)"
       id="g16"><g
         clip-path="url(#clipPath22)"
         id="g18"><path
           id="path24"
           style="fill:#fafafa;fill-opacity:1;fill-rule:evenodd;stroke:none"
           d="M 0,0 H 960 V 540 H 0 Z" /></g></g><g
       transform="matrix(1,0,0,-0.5764923,0,431.96378)"
       id="g26"><g
         clip-path="url(#clipPath32)"
         id="g28"><g
           transform="translate(0,5.29e-5)"
           id="g34"><path
             id="path36"
             style="fill:#d9d9d9;fill-opacity:1;fill-rule:evenodd;stroke:none"
             d="m 93,290.76 h 761.88 v 30.48 H 93 Z" /></g></g></g><g
       transform="matrix(0.5577393,0,0,-0.4292145,79.006165,386.91754)"
       id="g38"><g
         clip-path="url(#clipPath44)"
         id="g40"><g
           transform="translate(196.48681,319.6194)"
           id="g46"><path
             id="path48"
             style="fill:#226bab;fill-opacity:1;fill-rule:evenodd;stroke:none"
             d="m 0,0 c -16.418,-25.122 -16.418,-25.122 -16.418,-25.122 -1.173,-1.878 0,-4.226 2.11,-4.226 86.313,0 86.313,0 86.313,0 0.938,0 1.876,0.47 2.345,1.409 16.418,25.121 16.418,25.121 16.418,25.121 1.173,1.879 0,4.227 -2.111,4.227 -86.312,0 -86.312,0 -86.312,0 C 1.407,1.409 0.469,0.939 0,0" /></g></g></g><g
       transform="matrix(0.5577393,0,0,-0.4292145,141.14333,386.91754)"
       id="g50"><g
         clip-path="url(#clipPath56)"
         id="g52"><g
           transform="translate(299.66697,319.6194)"
           id="g58"><path
             id="path60"
             style="fill:#2e9273;fill-opacity:1;fill-rule:evenodd;stroke:none"
             d="m 0,0 c -16.418,-25.122 -16.418,-25.122 -16.418,-25.122 -1.173,-1.878 0,-4.226 2.111,-4.226 86.312,0 86.312,0 86.312,0 0.938,0 1.876,0.47 2.345,1.409 16.418,25.121 16.418,25.121 16.418,25.121 1.173,1.879 0,4.227 -2.111,4.227 -86.312,0 -86.312,0 -86.312,0 C 1.407,1.409 0.469,0.939 0,0" /></g></g></g><g
       transform="matrix(0.5577393,0,0,-0.4292145,194.31474,386.91754)"
       id="g62"><g
         clip-path="url(#clipPath68)"
         id="g64"><g
           transform="translate(402.94695,319.6194)"
           id="g70"><path
             id="path72"
             style="fill:#83ac3f;fill-opacity:1;fill-rule:evenodd;stroke:none"
             d="m 0,0 c -16.418,-25.122 -16.418,-25.122 -16.418,-25.122 -1.173,-1.878 0,-4.226 2.111,-4.226 86.312,0 86.312,0 86.312,0 0.938,0 1.876,0.47 2.346,1.409 16.418,25.121 16.418,25.121 16.418,25.121 1.172,1.879 0,4.227 -2.111,4.227 -86.312,0 -86.312,0 -86.312,0 C 1.408,1.409 0.469,0.939 0,0" /></g></g></g><g
       transform="matrix(0.5577393,0,0,-0.4292145,286.37369,386.91754)"
       id="g74"><g
         clip-path="url(#clipPath80)"
         id="g76"><g
           transform="translate(609.3266,319.6194)"
           id="g82"><path
             id="path84"
             style="fill:#b02521;fill-opacity:1;fill-rule:evenodd;stroke:none"
             d="m 0,0 c -16.433,-25.122 -16.433,-25.122 -16.433,-25.122 -1.174,-1.878 0,-4.226 2.112,-4.226 86.391,0 86.391,0 86.391,0 0.939,0 1.878,0.47 2.347,1.409 16.433,25.121 16.433,25.121 16.433,25.121 1.174,1.879 0,4.227 -2.113,4.227 -86.39,0 -86.39,0 -86.39,0 C 1.408,1.409 0.469,0.939 0,0" /></g></g></g><g
       transform="matrix(0.5577393,0,0,-0.4292145,335.75128,386.91751)"
       id="g86"><g
         clip-path="url(#clipPath92)"
         id="g88"><g
           transform="translate(712.11507,319.14942)"
           id="g94"><path
             id="path96"
             style="fill:#595959;fill-opacity:1;fill-rule:evenodd;stroke:none"
             d="m 0,0 c -14.779,-22.539 -14.779,-22.539 -14.779,-22.539 -1.642,-2.582 0.234,-6.339 3.519,-6.339 83.042,0 83.042,0 83.042,0 1.408,0 2.58,0.705 3.519,1.879 14.544,22.538 14.544,22.538 14.544,22.538 1.877,2.818 0,6.34 -3.284,6.34 -83.043,0 -83.043,0 -83.043,0 C 2.111,1.879 0.703,1.174 0,0" /></g></g></g><g
       transform="matrix(1,0,0,-1,-22,473.25012)"
       id="g98"><g
         clip-path="url(#clipPath104)"
         id="g100"><path
           id="path106"
           style="fill:#646463;fill-opacity:1;fill-rule:evenodd;stroke:none"
           d="M 233.04,202.8 H 234 v 1.92 h -0.96 z" /></g></g><g
       transform="matrix(1,0,0,-1,-22.000076,473.25012)"
       id="g108"><g
         clip-path="url(#clipPath114)"
         id="g110"><g
           transform="translate(230.64009,202.67975)"
           id="g116"><path
             id="path118"
             style="fill:#646463;fill-opacity:1;fill-rule:evenodd;stroke:none"
             d="m 0,0 c 0.045,-1.515 1.356,-2.781 2.972,-2.781 1.617,0 2.927,1.266 2.927,2.827 0,1.562 -1.31,2.828 -2.927,2.828 C 1.356,2.874 0.045,1.608 0,0" /></g></g></g><g
       transform="matrix(1,0,0,-0.0467072,-22.000259,277.73102)"
       id="g120"><g
         clip-path="url(#clipPath126)"
         id="g122"><g
           transform="translate(233.31227,205.54917)"
           id="g128"><path
             id="path130"
             style="fill:#646463;fill-opacity:1;fill-rule:nonzero;stroke:none"
             d="m 0,0 -0.031,4.8 0.6,0.004 0.031,-4.8 z m -0.042,6.6 -0.031,4.8 0.6,0.004 0.031,-4.8 z m -0.043,6.6 -0.031,4.8 0.6,0.003 0.031,-4.799 z m -0.042,6.6 -0.031,4.799 0.6,0.004 0.031,-4.8 z m -0.043,6.599 -0.031,4.8 0.6,0.004 0.031,-4.8 z m -0.042,6.6 -0.031,4.8 0.6,0.004 0.031,-4.8 z m -0.043,6.6 -0.031,4.8 0.6,0.004 0.031,-4.8 z m -0.042,6.6 -0.031,4.8 0.6,0.004 0.031,-4.8 z m -0.043,6.6 -0.031,4.8 0.6,0.004 0.031,-4.8 z m -0.042,6.6 -0.031,4.8 0.6,0.004 0.031,-4.8 z m -0.043,6.6 -0.031,4.8 0.6,0.003 0.031,-4.799 z m -0.042,6.6 -0.031,4.799 0.6,0.004 0.031,-4.8 z m -0.043,6.599 -0.031,4.8 0.6,0.004 0.031,-4.8 -0.6,-0.004" /></g></g></g><g
       transform="matrix(1,0,0,-1,0,473.25012)"
       id="g132"><g
         clip-path="url(#clipPath138)"
         id="g134"><path
           id="path140"
           style="fill:#646463;fill-opacity:1;fill-rule:evenodd;stroke:none"
           d="m 439.56,202.8 h 0.84 v 1.92 h -0.84 z" /></g></g><g
       transform="matrix(1,0,0,-1,0,473.25012)"
       id="g142"><g
         clip-path="url(#clipPath148)"
         id="g144"><g
           transform="translate(437.16,202.67975)"
           id="g150"><path
             id="path152"
             style="fill:#646463;fill-opacity:1;fill-rule:evenodd;stroke:none"
             d="m 0,0 c -0.011,-1.515 1.299,-2.781 2.916,-2.781 1.616,0 2.927,1.266 2.927,2.827 0,1.562 -1.311,2.828 -2.927,2.828 C 1.299,2.874 -0.011,1.608 0,0" /></g></g></g><g
       transform="matrix(1,0,0,-0.0467072,0,277.73361)"
       id="g154"><g
         clip-path="url(#clipPath160)"
         id="g156"><g
           transform="translate(439.70099,205.60732)"
           id="g162"><path
             id="path164"
             style="fill:#646463;fill-opacity:1;fill-rule:nonzero;stroke:none"
             d="m 0,0 -0.031,4.8 0.6,0.004 0.031,-4.8 z m -0.042,6.6 -0.031,4.8 0.6,0.004 0.031,-4.8 z m -0.043,6.6 -0.031,4.8 0.6,0.003 0.031,-4.799 z m -0.042,6.6 -0.031,4.799 0.6,0.004 0.031,-4.8 z m -0.043,6.599 -0.031,4.8 0.6,0.004 0.031,-4.8 z m -0.042,6.6 -0.031,4.8 0.6,0.004 0.031,-4.8 z m -0.043,6.6 -0.031,4.8 0.6,0.004 0.031,-4.8 z m -0.042,6.6 -0.031,4.8 0.6,0.004 0.031,-4.8 z m -0.043,6.6 -0.031,4.8 0.6,0.004 0.031,-4.8 z m -0.042,6.6 -0.031,4.8 0.6,0.004 0.031,-4.8 z m -0.043,6.6 -0.031,4.8 0.6,0.003 0.031,-4.799 z m -0.042,6.6 -0.031,4.799 0.6,0.004 0.031,-4.8 z m -0.043,6.599 -0.031,4.8 0.6,0.004 0.031,-4.8 -0.6,-0.004" /></g></g></g><g
       transform="matrix(1,0,0,-1,0,473.25012)"
       id="g166"><g
         clip-path="url(#clipPath172)"
         id="g168"><path
           id="path174"
           style="fill:#646463;fill-opacity:1;fill-rule:evenodd;stroke:none"
           d="m 645.96,202.8 h 0.96 v 1.92 h -0.96 z" /></g></g><g
       transform="matrix(1,0,0,-1,0,473.25012)"
       id="g176"><g
         clip-path="url(#clipPath182)"
         id="g178"><g
           transform="translate(643.56,202.67975)"
           id="g184"><path
             id="path186"
             style="fill:#646463;fill-opacity:1;fill-rule:evenodd;stroke:none"
             d="m 0,0 c 0.052,-1.515 1.363,-2.781 2.979,-2.781 1.617,0 2.927,1.266 2.927,2.827 0,1.562 -1.31,2.828 -2.927,2.828 C 1.363,2.874 0.052,1.608 0,0" /></g></g></g><g
       transform="matrix(1,0,0,-0.0467072,0,277.73358)"
       id="g188"><g
         clip-path="url(#clipPath194)"
         id="g190"><g
           transform="translate(646.26404,204.4162)"
           id="g196"><path
             id="path198"
             style="fill:#646463;fill-opacity:1;fill-rule:nonzero;stroke:none"
             d="m 0,0 -0.031,4.8 0.6,0.004 0.031,-4.8 z m -0.042,6.6 -0.031,4.8 0.6,0.004 0.031,-4.8 z m -0.043,6.6 -0.031,4.8 0.6,0.004 0.031,-4.8 z m -0.042,6.6 -0.031,4.8 0.6,0.004 0.031,-4.8 z m -0.043,6.6 -0.031,4.8 0.6,0.004 0.031,-4.8 z m -0.042,6.6 -0.031,4.8 0.6,0.003 0.031,-4.799 z m -0.043,6.6 -0.031,4.799 0.6,0.004 0.031,-4.8 z m -0.042,6.599 -0.031,4.8 0.6,0.004 0.031,-4.8 z m -0.043,6.6 -0.031,4.8 0.6,0.004 0.031,-4.8 z m -0.042,6.6 -0.031,4.8 0.6,0.004 0.031,-4.8 z m -0.043,6.6 -0.031,4.8 0.6,0.004 0.031,-4.8 z m -0.042,6.6 -0.031,4.8 0.6,0.004 0.03,-4.8 z m -0.043,6.6 -0.031,4.8 0.6,0.004 0.031,-4.8 -0.6,-0.004" /></g></g></g><g
       transform="matrix(1,0,0,-1,-12,646.89069)"
       id="g200"><g
         clip-path="url(#clipPath206)"
         id="g202"><path
           id="path208"
           style="fill:#646463;fill-opacity:1;fill-rule:evenodd;stroke:none"
           d="m 339.84,406.32 h 0.84 v 1.92 h -0.84 z" /></g></g><g
       transform="matrix(1,0,0,-1,-12,646.89069)"
       id="g210"><g
         clip-path="url(#clipPath216)"
         id="g212"><g
           transform="translate(337.44,408.12)"
           id="g218"><path
             id="path220"
             style="fill:#646463;fill-opacity:1;fill-rule:evenodd;stroke:none"
             d="m 0,0 c -0.001,-1.616 1.31,-2.948 2.926,-2.948 1.616,0 2.927,1.332 2.927,2.976 0,1.644 -1.311,2.977 -2.927,2.977 C 1.31,3.005 -0.001,1.672 0,0" /></g></g></g><g
       transform="matrix(1,0,0,-0.0612488,-12,266.23901)"
       id="g222"><g
         clip-path="url(#clipPath228)"
         id="g224"><g
           transform="translate(340.41299,321.12706)"
           id="g230"><path
             id="path232"
             style="fill:#646463;fill-opacity:1;fill-rule:nonzero;stroke:none"
             d="m 0,0 -0.031,4.8 0.6,0.003 0.031,-4.8 z m -0.042,6.6 -0.031,4.799 0.6,0.004 0.031,-4.8 z m -0.043,6.599 -0.031,4.8 0.6,0.004 0.031,-4.8 z m -0.042,6.6 -0.031,4.8 0.6,0.004 0.031,-4.8 z m -0.043,6.6 -0.031,4.8 0.6,0.004 0.031,-4.8 z m -0.042,6.6 -0.031,4.8 0.6,0.004 0.031,-4.8 z m -0.043,6.6 -0.031,4.8 0.6,0.004 0.031,-4.8 z m -0.042,6.6 -0.031,4.8 0.6,0.003 0.031,-4.799 z m -0.043,6.6 -0.031,4.799 0.6,0.004 0.031,-4.8 z m -0.042,6.599 -0.031,4.8 0.6,0.004 0.031,-4.8 z m -0.043,6.6 -0.031,4.8 0.6,0.004 0.031,-4.8 z m -0.042,6.6 -0.031,4.8 0.6,0.004 0.031,-4.8 z m -0.043,6.6 -0.031,4.8 0.6,0.004 0.031,-4.8 -0.6,-0.004" /></g></g></g><g
       transform="matrix(0.5577393,0,0,-0.4292145,244.94743,386.91754)"
       id="g234"><g
         clip-path="url(#clipPath240)"
         id="g236"><g
           transform="translate(506.1279,319.6194)"
           id="g242"><path
             id="path244"
             style="fill:#ee852a;fill-opacity:1;fill-rule:evenodd;stroke:none"
             d="m 0,0 c -16.418,-25.122 -16.418,-25.122 -16.418,-25.122 -1.172,-1.878 0,-4.226 2.111,-4.226 86.312,0 86.312,0 86.312,0 0.939,0 1.877,0.47 2.346,1.409 16.418,25.121 16.418,25.121 16.418,25.121 1.172,1.879 0,4.227 -2.111,4.227 -86.312,0 -86.312,0 -86.312,0 C 1.408,1.409 0.47,0.939 0,0" /></g></g></g><g
       transform="matrix(1,0,0,-1,0,646.89069)"
       id="g246"><g
         clip-path="url(#clipPath252)"
         id="g248"><path
           id="path254"
           style="fill:#646463;fill-opacity:1;fill-rule:evenodd;stroke:none"
           d="m 546.24,406.32 h 0.96 v 1.92 h -0.96 z" /></g></g><g
       transform="matrix(1,0,0,-1,0,646.89069)"
       id="g256"><g
         clip-path="url(#clipPath262)"
         id="g258"><g
           transform="translate(543.96001,408.12)"
           id="g264"><path
             id="path266"
             style="fill:#646463;fill-opacity:1;fill-rule:evenodd;stroke:none"
             d="m 0,0 c -0.057,-1.616 1.253,-2.948 2.87,-2.948 1.616,0 2.926,1.332 2.926,2.976 0,1.644 -1.31,2.977 -2.926,2.977 C 1.253,3.005 -0.057,1.672 0,0" /></g></g></g><g
       transform="matrix(1,0,0,-0.0612488,0,266.23898)"
       id="g268"><g
         clip-path="url(#clipPath274)"
         id="g270"><g
           transform="translate(546.97601,321.62282)"
           id="g276"><path
             id="path278"
             style="fill:#646463;fill-opacity:1;fill-rule:nonzero;stroke:none"
             d="M 0,0 -0.031,4.8 0.569,4.803 0.6,0.004 Z m -0.042,6.6 -0.031,4.799 0.6,0.004 0.031,-4.8 z m -0.043,6.599 -0.031,4.8 0.6,0.004 0.031,-4.8 z m -0.042,6.6 -0.031,4.8 0.6,0.004 0.031,-4.8 z m -0.043,6.6 -0.031,4.8 0.6,0.004 0.031,-4.8 z m -0.042,6.6 -0.031,4.8 0.6,0.004 0.031,-4.8 z m -0.043,6.6 -0.031,4.8 0.6,0.004 0.031,-4.8 z m -0.042,6.6 -0.031,4.8 0.6,0.004 0.031,-4.8 z m -0.043,6.6 -0.031,4.8 0.6,0.003 0.031,-4.8 z m -0.042,6.599 -0.031,4.8 0.6,0.004 0.031,-4.8 z m -0.043,6.6 -0.031,4.8 0.6,0.004 0.031,-4.8 z m -0.042,6.6 -0.031,4.8 0.6,0.004 0.031,-4.8 z m -0.043,6.6 -0.031,4.8 0.6,0.004 0.031,-4.8 -0.6,-0.004" /></g></g></g><g
       transform="matrix(1,0,0,-1,0,646.89069)"
       id="g280"><g
         clip-path="url(#clipPath286)"
         id="g282"><path
           id="path288"
           style="fill:#646463;fill-opacity:1;fill-rule:evenodd;stroke:none"
           d="m 752.64,406.32 h 0.96 v 1.92 h -0.96 z" /></g></g><g
       transform="matrix(1,0,0,-1,0,646.89069)"
       id="g290"><g
         clip-path="url(#clipPath296)"
         id="g292"><g
           transform="translate(750.36,408.12)"
           id="g298"><path
             id="path300"
             style="fill:#646463;fill-opacity:1;fill-rule:evenodd;stroke:none"
             d="m 0,0 c 0.006,-1.616 1.317,-2.948 2.933,-2.948 1.617,0 2.927,1.332 2.927,2.976 0,1.644 -1.31,2.977 -2.927,2.977 C 1.317,3.005 0.006,1.672 0,0" /></g></g></g><g
       transform="matrix(1,0,0,-0.0612488,0,266.23895)"
       id="g302"><g
         clip-path="url(#clipPath308)"
         id="g304"><g
           transform="translate(753.39001,320.72895)"
           id="g310"><path
             id="path312"
             style="fill:#646463;fill-opacity:1;fill-rule:nonzero;stroke:none"
             d="m 0,0 -0.031,4.8 0.6,0.004 0.031,-4.8 z m -0.042,6.6 -0.031,4.8 0.6,0.003 0.031,-4.799 z m -0.043,6.6 -0.031,4.799 0.6,0.004 0.031,-4.8 z m -0.042,6.599 -0.031,4.8 0.6,0.004 0.031,-4.8 z m -0.043,6.6 -0.031,4.8 0.6,0.004 0.031,-4.8 z m -0.042,6.6 -0.031,4.8 0.6,0.004 0.031,-4.8 z m -0.043,6.6 -0.031,4.8 0.6,0.004 0.031,-4.8 z m -0.042,6.6 -0.031,4.8 0.6,0.004 0.031,-4.8 z m -0.043,6.6 -0.031,4.8 0.6,0.003 0.031,-4.799 z m -0.042,6.6 -0.031,4.799 0.6,0.004 0.031,-4.8 z m -0.043,6.599 -0.031,4.8 0.6,0.004 0.031,-4.8 z m -0.042,6.6 -0.031,4.8 0.6,0.004 0.031,-4.8 z m -0.043,6.6 -0.031,4.8 0.6,0.004 0.031,-4.8 -0.6,-0.004" /></g></g></g><text
       id="text316"
       style="font-variant:normal;font-weight:bold;font-stretch:normal;font-size:6px;font-family:Arial;-inkscape-font-specification:Arial-BoldMT;writing-mode:lr-tb;fill:#ffffff;fill-opacity:1;fill-rule:nonzero;stroke:none"
       transform="matrix(1,0,0,-1,201.971,253.088)"><tspan
         id="tspan314"
         y="0"
         x="0 3.336 6.6719999 10.008">2022</tspan></text>
<text
       id="text320"
       style="font-variant:normal;font-weight:bold;font-stretch:normal;font-size:6px;font-family:Arial;-inkscape-font-specification:Arial-BoldMT;writing-mode:lr-tb;fill:#ffffff;fill-opacity:1;fill-rule:nonzero;stroke:none"
       transform="matrix(1,0,0,-1,319.457,252.89)"><tspan
         id="tspan318"
         y="0"
         x="0 3.336 6.6719999 10.008">2023</tspan></text>
<text
       id="text324"
       style="font-variant:normal;font-weight:bold;font-stretch:normal;font-size:6px;font-family:Arial;-inkscape-font-specification:Arial-BoldMT;writing-mode:lr-tb;fill:#ffffff;fill-opacity:1;fill-rule:nonzero;stroke:none"
       transform="matrix(1,0,0,-1,430.827,252.789)"><tspan
         id="tspan322"
         y="0"
         x="0 3.336 6.6719999 10.008">2024</tspan></text>
<text
       id="text328"
       style="font-variant:normal;font-weight:bold;font-stretch:normal;font-size:6px;font-family:Arial;-inkscape-font-specification:Arial-BoldMT;writing-mode:lr-tb;fill:#ffffff;fill-opacity:1;fill-rule:nonzero;stroke:none"
       transform="matrix(1,0,0,-1,537.533,252.984)"><tspan
         id="tspan326"
         y="0"
         x="0 3.336 6.6719999 10.008">2025</tspan></text>
<text
       id="text332"
       style="font-variant:normal;font-weight:bold;font-stretch:normal;font-size:6px;font-family:Arial;-inkscape-font-specification:Arial-BoldMT;writing-mode:lr-tb;fill:#ffffff;fill-opacity:1;fill-rule:nonzero;stroke:none"
       transform="matrix(1,0,0,-1,637.819,253.062)"><tspan
         id="tspan330"
         y="0"
         x="0 3.336 6.6719999 10.008">2026</tspan></text>
<text
       id="text336"
       style="font-variant:normal;font-weight:bold;font-stretch:normal;font-size:6px;font-family:'Trebuchet MS';-inkscape-font-specification:TrebuchetMS-Bold;writing-mode:lr-tb;fill:#ffffff;fill-opacity:1;fill-rule:nonzero;stroke:none"
       transform="matrix(1,0,0,-1,742.708,252.928)"><tspan
         id="tspan334"
         y="0"
         x="0">&gt;</tspan></text>
<text
       id="text340"
       style="font-variant:normal;font-weight:bold;font-stretch:normal;font-size:6px;font-family:Arial;-inkscape-font-specification:Arial-BoldMT;writing-mode:lr-tb;fill:#ffffff;fill-opacity:1;fill-rule:nonzero;stroke:none"
       transform="matrix(1,0,0,-1,746.242,252.928)"><tspan
         id="tspan338"
         y="0"
         x="0 3.336 6.6719999 10.008">2027</tspan></text>
</g></svg>