<svg xmlns="http://www.w3.org/2000/svg" xml:space="preserve" fill-rule="evenodd" clip-rule="evenodd" image-rendering="optimizeQuality" shape-rendering="geometricPrecision" text-rendering="geometricPrecision" width="150" viewBox="0 0 1318 243" preserveAspectRatio="xMidYMin meet">
<style type="text/css">
.stroke {fill: none;stroke: #4c4c4c;stroke-width: 15;stroke-dasharray: 2000;stroke-dashoffset: 2000;animation: draw 3s linear infinite;}
@keyframes draw {0% { stroke-dashoffset: 2000; }80% { stroke-dashoffset: 0; }100% { stroke-dashoffset: 0; }}
</style>
<path fill="red" d="M128 181H64v-60h4c4 0 17 21 19 25 33 0 64-9 64 21 0 10-12 14-23 14M0 0h145c13 1 25 3 32 6 61 23 42 107 8 110v2c36 9 51 90-5 116-9 4-26 6-46 7H48c-19 0-35-1-47-1V0zm140 89H64V58h75c21 0 18 31 1 31m402-20c0 45 25 70 64 75 18 2 54-2 68 2 20 4 25 35-1 35H542v58h143c30 0 53-15 64-34 12-21 11-59 0-80-10-20-33-36-61-36h-49c-19 0-32 3-32-18 0-19 31-13 52-13h65l37-58H618c-49 0-75 22-75 70zm-219 56v-13c0-76 109-70 109 1v11c0 29-23 57-52 57h-7c-28 0-50-28-50-56m-66-14v15c0 61 56 115 119 115 65 0 121-54 121-119v-7C497 58 442 0 388 0h-27c-52 0-105 57-105 112zm668 70h-7c-29 0-50-28-50-58v-10c0-31 20-56 51-56h5c71 0 70 123 1 123zm-122-69v13c0 62 56 116 119 116 64 0 121-54 121-118v-9c0-57-55-115-110-115h-24c-54 0-107 57-107 113zm375 127h136v-58h-115c-28 0-47-27-47-56v-16c0-62 67-52 128-52l30-58h-117c-45 4-78 18-97 63-30 72 7 176 81 176z"/>
<path class="stroke" stroke="#fff" d="M291 118c0 50 34 93 86 93 50 0 88-40 88-93 0-46-37-90-85-90h-8c-48 0-81 44-81 90zm546 0c0 50 34 93 86 93 48 0 88-40 88-88v-6c0-46-38-89-85-89h-8c-48 0-81 44-81 90zm-288 92h106c19 0 38 2 53-8 15-11 20-35 14-53-20-68-127 3-144-63-4-17-2-43 13-53 13-9 21-6 37-6h115m572 184h-117c-23 0-41-6-56-25-23-28-25-85-11-115 33-68 132-39 166-44M154 118c3 12 42 25 24 70-22 27-39 23-72 23-13 0-66 2-74-1-2-5-2-176 0-181h103c19 0 19-2 35 7 10 10 17 27 14 43-7 29-25 30-30 40H67"/>
</svg>