<svg xmlns="http://www.w3.org/2000/svg" viewBox="0 0 215.447 45.387">
<path fill="red" d="M39.23 32.414q0 6.676-5.015 10.016-2.128 1.395-5.047 1.968L.824 44.352V1.68h27q3.357.487 5.813 1.765 5.749 3.035 5.703 9.532c-.043 4.937-2.086 8.117-6.125 9.53q6.014 2.783 6.015 9.907m-4.75-17.89q-.046-7.716-6.656-8.36H5.887v33.719H25.12q2.654-.264 4.516-1.172 4.53-2.139 4.531-6.938-.001-5.262-5.375-8.937 5.685-3.515 5.687-8.313m-1.484-.157q0 5.38-5.906 7.828H12.168V34.18l11.344-.063q4.373-.202 4.375-2.875 0-2.607-2.297-3.515h-9.11l-3.03-4.313h13.42q5.749 2.612 5.75 8.094-.002 6.08-7.562 7.14H7.262V7.445l20.36-.062c1.062.105 1.944.406 2.655.906 1.782 1.18 2.688 3.203 2.72 6.078m-4.64.531q0-2.67-2.766-2.875H12.168v5.704h13.266q.856-.06 1.437-.375 1.436-.703 1.484-2.454m55.765 8.094c0 5.93-2.133 11.016-6.39 15.266q-6.393 6.361-15.172 6.36-8.69 0-14.891-6.329-6.204-6.342-6.203-15.297-.002-8.953 6.125-15.094c4.082-4.101 9.035-6.156 14.86-6.156q8.777 0 15.218 6.188 6.451 6.174 6.453 15.062m-5.11.047q0-7.125-4.827-12-4.816-4.875-11.735-4.875-6.878.001-11.328 4.766-4.439 4.77-4.437 11.953-.001 7.252 4.515 12.125 4.529 4.875 11.406 4.875 6.921.002 11.657-4.813 4.748-4.825 4.75-12.03m-1.656-.047q0 6.657-4.203 11.156-4.206 4.5-10.547 4.5c-4.187 0-7.664-1.515-10.421-4.546q-4.125-4.561-4.125-11.22c0-4.437 1.347-8.116 4.046-11.046q4.062-4.39 10.344-4.39 6.341.002 10.625 4.468 4.28 4.47 4.281 11.078m-4.734 0q0-4.951-2.86-7.953-2.847-3.014-7.312-3.016-4.422 0-6.953 2.938-2.53 2.925-2.531 7.922 0 5.016 2.64 8.156c1.758 2.094 4.094 3.14 7 3.14q4.419.002 7.22-3.109 2.794-3.122 2.796-8.078m53.059-21.25H98.242q-3.298.206-5.64 1.485-5.706 3.094-5.704 11.14 0 8.36 6.282 11.719 2.56 1.377 6.234 1.64h10.766q3.187 1.5 3.187 3.422-.002 2.706-3.297 3.032H86.898v4.468h24.391q6.982-.468 6.922-7.03c0-3.407-1.227-5.802-3.672-7.188q-1.548-.856-3.719-1.016H99.57q-2.236-.2-3.78-1.11-3.832-2.294-3.83-8 0-7.558 6.282-8.14h24.453zm-3.735 5.703-2.984 4.578h-18.375q-2.344-.06-2.344 2.454c0 1.843.727 2.93 2.188 3.25l12.406-.063q3.575.33 6.125 1.766 6.124 3.516 6.125 12.03-.001 8.518-6.875 11.563c-1.875.856-4.149 1.297-6.813 1.329h-24.5v-4.47h25.36q2.123-.216 3.672-1.077 3.668-2.062 3.734-7.188.046-5.906-4.062-8.25-1.751-.966-4.141-1.172h-10.766c-1.418-.07-2.64-.375-3.672-.906q-3.688-1.81-3.687-6.656c0-3.945 1.547-6.344 4.64-7.188zm48.73 15.547q-.002 8.893-6.39 15.266-6.394 6.361-15.172 6.36-8.69 0-14.89-6.329-6.204-6.342-6.203-15.297c0-5.969 2.039-11 6.125-15.094 4.082-4.101 9.035-6.156 14.859-6.156q8.778 0 15.219 6.188 6.452 6.174 6.453 15.062m-5.109.047q0-7.125-4.828-12-4.814-4.875-11.734-4.875-6.878.001-11.328 4.766-4.44 4.77-4.438 11.953-.001 7.252 4.516 12.125 4.529 4.875 11.406 4.875 6.92.002 11.656-4.813c3.164-3.218 4.75-7.226 4.75-12.03m-1.656-.047q0 6.657-4.203 11.156-4.207 4.5-10.547 4.5c-4.187 0-7.664-1.515-10.422-4.546q-4.125-4.561-4.125-11.22c0-4.437 1.348-8.116 4.047-11.046q4.061-4.39 10.344-4.39 6.34.002 10.625 4.468c2.851 2.98 4.281 6.672 4.281 11.078m-4.734 0q0-4.951-2.86-7.953-2.847-3.014-7.312-3.016-4.424 0-6.953 2.938-2.531 2.925-2.531 7.922-.002 5.016 2.64 8.156 2.639 3.14 7 3.14 4.418.002 7.219-3.109 2.796-3.122 2.797-8.078m54.496 21.36h-24.125q-4.689-.53-8.047-2.829-8.049-5.483-8.047-18.906c0-8.52 2.961-14.554 8.89-18.11q3.733-2.231 8.907-2.765h22l-2.453 4.422H192.25q-3.986.315-6.86 2.078-6.876 4.095-6.874 14.438c0 7.21 2.039 12.25 6.125 15.125q2.561 1.752 6.125 2.078h22.953zm0-5.704h-22.11q-3.41-.31-5.859-1.968-5.812-3.937-5.812-13.844 0-9.902 6.609-13.64 2.718-1.547 6.61-1.75h17.156l-2.563 4.577h-13.469q-2.783.205-4.687 1.329-4.751 2.66-4.75 9.328c0 4.793 1.367 8.148 4.11 10.062 1.132.781 2.5 1.262 4.093 1.438h20.719zm0 0" aria-label="BOSOC"/>
</svg>
