<?xml version="1.0" encoding="utf-8"?>
<!DOCTYPE svg PUBLIC "-//W3C//DTD SVG 1.1//EN" "http://www.w3.org/Graphics/SVG/1.1/DTD/svg11.dtd">
<svg version="1.1" id="Layer_1" xmlns="http://www.w3.org/2000/svg" xmlns:xlink="http://www.w3.org/1999/xlink" x="0px" y="0px"
width="259px" height="259px" viewBox="0 0 259 259" enable-background="new 0 0 259 259" xml:space="preserve">
<rect x="0" y="0" width="259" height="259" fill="rgb(255,255,255)" /><g transform="translate(14,14)"><g transform="translate(70,0) scale(0.014,0.014)"><g transform="" style="fill: rgb(48, 191, 57);">
<path d="M250,0c138.077,0,250,111.93,250,250c0,138.077-111.923,250-250,250C111.93,500,0,388.077,0,250C0,111.93,111.93,0,250,0z"
	/>
</g></g><g transform="translate(91,0) scale(0.014,0.014)"><g transform="" style="fill: rgb(48, 191, 57);">
<path d="M250,0c138.077,0,250,111.93,250,250c0,138.077-111.923,250-250,250C111.93,500,0,388.077,0,250C0,111.93,111.93,0,250,0z"
	/>
</g></g><g transform="translate(98,0) scale(0.014,0.014)"><g transform="" style="fill: rgb(48, 191, 57);">
<path d="M250,0c138.077,0,250,111.93,250,250c0,138.077-111.923,250-250,250C111.93,500,0,388.077,0,250C0,111.93,111.93,0,250,0z"
	/>
</g></g><g transform="translate(161,0) scale(0.014,0.014)"><g transform="" style="fill: rgb(48, 191, 57);">
<path d="M250,0c138.077,0,250,111.93,250,250c0,138.077-111.923,250-250,250C111.93,500,0,388.077,0,250C0,111.93,111.93,0,250,0z"
	/>
</g></g><g transform="translate(168,0) scale(0.014,0.014)"><g transform="" style="fill: rgb(48, 191, 57);">
<path d="M250,0c138.077,0,250,111.93,250,250c0,138.077-111.923,250-250,250C111.93,500,0,388.077,0,250C0,111.93,111.93,0,250,0z"
	/>
</g></g><g transform="translate(63,7) scale(0.014,0.014)"><g transform="" style="fill: rgb(48, 191, 57);">
<path d="M250,0c138.077,0,250,111.93,250,250c0,138.077-111.923,250-250,250C111.93,500,0,388.077,0,250C0,111.93,111.93,0,250,0z"
	/>
</g></g><g transform="translate(70,7) scale(0.014,0.014)"><g transform="" style="fill: rgb(48, 191, 57);">
<path d="M250,0c138.077,0,250,111.93,250,250c0,138.077-111.923,250-250,250C111.93,500,0,388.077,0,250C0,111.93,111.93,0,250,0z"
	/>
</g></g><g transform="translate(84,7) scale(0.014,0.014)"><g transform="" style="fill: rgb(48, 191, 57);">
<path d="M250,0c138.077,0,250,111.93,250,250c0,138.077-111.923,250-250,250C111.93,500,0,388.077,0,250C0,111.93,111.93,0,250,0z"
	/>
</g></g><g transform="translate(105,7) scale(0.014,0.014)"><g transform="" style="fill: rgb(48, 191, 57);">
<path d="M250,0c138.077,0,250,111.93,250,250c0,138.077-111.923,250-250,250C111.93,500,0,388.077,0,250C0,111.93,111.93,0,250,0z"
	/>
</g></g><g transform="translate(112,7) scale(0.014,0.014)"><g transform="" style="fill: rgb(48, 191, 57);">
<path d="M250,0c138.077,0,250,111.93,250,250c0,138.077-111.923,250-250,250C111.93,500,0,388.077,0,250C0,111.93,111.93,0,250,0z"
	/>
</g></g><g transform="translate(133,7) scale(0.014,0.014)"><g transform="" style="fill: rgb(48, 191, 57);">
<path d="M250,0c138.077,0,250,111.93,250,250c0,138.077-111.923,250-250,250C111.93,500,0,388.077,0,250C0,111.93,111.93,0,250,0z"
	/>
</g></g><g transform="translate(140,7) scale(0.014,0.014)"><g transform="" style="fill: rgb(48, 191, 57);">
<path d="M250,0c138.077,0,250,111.93,250,250c0,138.077-111.923,250-250,250C111.93,500,0,388.077,0,250C0,111.93,111.93,0,250,0z"
	/>
</g></g><g transform="translate(161,7) scale(0.014,0.014)"><g transform="" style="fill: rgb(48, 191, 57);">
<path d="M250,0c138.077,0,250,111.93,250,250c0,138.077-111.923,250-250,250C111.93,500,0,388.077,0,250C0,111.93,111.93,0,250,0z"
	/>
</g></g><g transform="translate(63,14) scale(0.014,0.014)"><g transform="" style="fill: rgb(48, 191, 57);">
<path d="M250,0c138.077,0,250,111.93,250,250c0,138.077-111.923,250-250,250C111.93,500,0,388.077,0,250C0,111.93,111.93,0,250,0z"
	/>
</g></g><g transform="translate(77,14) scale(0.014,0.014)"><g transform="" style="fill: rgb(48, 191, 57);">
<path d="M250,0c138.077,0,250,111.93,250,250c0,138.077-111.923,250-250,250C111.93,500,0,388.077,0,250C0,111.93,111.93,0,250,0z"
	/>
</g></g><g transform="translate(98,14) scale(0.014,0.014)"><g transform="" style="fill: rgb(48, 191, 57);">
<path d="M250,0c138.077,0,250,111.93,250,250c0,138.077-111.923,250-250,250C111.93,500,0,388.077,0,250C0,111.93,111.93,0,250,0z"
	/>
</g></g><g transform="translate(133,14) scale(0.014,0.014)"><g transform="" style="fill: rgb(48, 191, 57);">
<path d="M250,0c138.077,0,250,111.93,250,250c0,138.077-111.923,250-250,250C111.93,500,0,388.077,0,250C0,111.93,111.93,0,250,0z"
	/>
</g></g><g transform="translate(154,14) scale(0.014,0.014)"><g transform="" style="fill: rgb(48, 191, 57);">
<path d="M250,0c138.077,0,250,111.93,250,250c0,138.077-111.923,250-250,250C111.93,500,0,388.077,0,250C0,111.93,111.93,0,250,0z"
	/>
</g></g><g transform="translate(161,14) scale(0.014,0.014)"><g transform="" style="fill: rgb(48, 191, 57);">
<path d="M250,0c138.077,0,250,111.93,250,250c0,138.077-111.923,250-250,250C111.93,500,0,388.077,0,250C0,111.93,111.93,0,250,0z"
	/>
</g></g><g transform="translate(63,21) scale(0.014,0.014)"><g transform="" style="fill: rgb(48, 191, 57);">
<path d="M250,0c138.077,0,250,111.93,250,250c0,138.077-111.923,250-250,250C111.93,500,0,388.077,0,250C0,111.93,111.93,0,250,0z"
	/>
</g></g><g transform="translate(70,21) scale(0.014,0.014)"><g transform="" style="fill: rgb(48, 191, 57);">
<path d="M250,0c138.077,0,250,111.93,250,250c0,138.077-111.923,250-250,250C111.93,500,0,388.077,0,250C0,111.93,111.93,0,250,0z"
	/>
</g></g><g transform="translate(84,21) scale(0.014,0.014)"><g transform="" style="fill: rgb(48, 191, 57);">
<path d="M250,0c138.077,0,250,111.93,250,250c0,138.077-111.923,250-250,250C111.93,500,0,388.077,0,250C0,111.93,111.93,0,250,0z"
	/>
</g></g><g transform="translate(91,21) scale(0.014,0.014)"><g transform="" style="fill: rgb(48, 191, 57);">
<path d="M250,0c138.077,0,250,111.93,250,250c0,138.077-111.923,250-250,250C111.93,500,0,388.077,0,250C0,111.93,111.93,0,250,0z"
	/>
</g></g><g transform="translate(126,21) scale(0.014,0.014)"><g transform="" style="fill: rgb(48, 191, 57);">
<path d="M250,0c138.077,0,250,111.93,250,250c0,138.077-111.923,250-250,250C111.93,500,0,388.077,0,250C0,111.93,111.93,0,250,0z"
	/>
</g></g><g transform="translate(140,21) scale(0.014,0.014)"><g transform="" style="fill: rgb(48, 191, 57);">
<path d="M250,0c138.077,0,250,111.93,250,250c0,138.077-111.923,250-250,250C111.93,500,0,388.077,0,250C0,111.93,111.93,0,250,0z"
	/>
</g></g><g transform="translate(161,21) scale(0.014,0.014)"><g transform="" style="fill: rgb(48, 191, 57);">
<path d="M250,0c138.077,0,250,111.93,250,250c0,138.077-111.923,250-250,250C111.93,500,0,388.077,0,250C0,111.93,111.93,0,250,0z"
	/>
</g></g><g transform="translate(168,21) scale(0.014,0.014)"><g transform="" style="fill: rgb(48, 191, 57);">
<path d="M250,0c138.077,0,250,111.93,250,250c0,138.077-111.923,250-250,250C111.93,500,0,388.077,0,250C0,111.93,111.93,0,250,0z"
	/>
</g></g><g transform="translate(56,28) scale(0.014,0.014)"><g transform="" style="fill: rgb(48, 191, 57);">
<path d="M250,0c138.077,0,250,111.93,250,250c0,138.077-111.923,250-250,250C111.93,500,0,388.077,0,250C0,111.93,111.93,0,250,0z"
	/>
</g></g><g transform="translate(77,28) scale(0.014,0.014)"><g transform="" style="fill: rgb(48, 191, 57);">
<path d="M250,0c138.077,0,250,111.93,250,250c0,138.077-111.923,250-250,250C111.93,500,0,388.077,0,250C0,111.93,111.93,0,250,0z"
	/>
</g></g><g transform="translate(84,28) scale(0.014,0.014)"><g transform="" style="fill: rgb(48, 191, 57);">
<path d="M250,0c138.077,0,250,111.93,250,250c0,138.077-111.923,250-250,250C111.93,500,0,388.077,0,250C0,111.93,111.93,0,250,0z"
	/>
</g></g><g transform="translate(98,28) scale(0.014,0.014)"><g transform="" style="fill: rgb(48, 191, 57);">
<path d="M250,0c138.077,0,250,111.93,250,250c0,138.077-111.923,250-250,250C111.93,500,0,388.077,0,250C0,111.93,111.93,0,250,0z"
	/>
</g></g><g transform="translate(112,28) scale(0.014,0.014)"><g transform="" style="fill: rgb(48, 191, 57);">
<path d="M250,0c138.077,0,250,111.93,250,250c0,138.077-111.923,250-250,250C111.93,500,0,388.077,0,250C0,111.93,111.93,0,250,0z"
	/>
</g></g><g transform="translate(119,28) scale(0.014,0.014)"><g transform="" style="fill: rgb(48, 191, 57);">
<path d="M250,0c138.077,0,250,111.93,250,250c0,138.077-111.923,250-250,250C111.93,500,0,388.077,0,250C0,111.93,111.93,0,250,0z"
	/>
</g></g><g transform="translate(140,28) scale(0.014,0.014)"><g transform="" style="fill: rgb(48, 191, 57);">
<path d="M250,0c138.077,0,250,111.93,250,250c0,138.077-111.923,250-250,250C111.93,500,0,388.077,0,250C0,111.93,111.93,0,250,0z"
	/>
</g></g><g transform="translate(154,28) scale(0.014,0.014)"><g transform="" style="fill: rgb(48, 191, 57);">
<path d="M250,0c138.077,0,250,111.93,250,250c0,138.077-111.923,250-250,250C111.93,500,0,388.077,0,250C0,111.93,111.93,0,250,0z"
	/>
</g></g><g transform="translate(161,28) scale(0.014,0.014)"><g transform="" style="fill: rgb(48, 191, 57);">
<path d="M250,0c138.077,0,250,111.93,250,250c0,138.077-111.923,250-250,250C111.93,500,0,388.077,0,250C0,111.93,111.93,0,250,0z"
	/>
</g></g><g transform="translate(168,28) scale(0.014,0.014)"><g transform="" style="fill: rgb(48, 191, 57);">
<path d="M250,0c138.077,0,250,111.93,250,250c0,138.077-111.923,250-250,250C111.93,500,0,388.077,0,250C0,111.93,111.93,0,250,0z"
	/>
</g></g><g transform="translate(70,35) scale(0.014,0.014)"><g transform="" style="fill: rgb(48, 191, 57);">
<path d="M250,0c138.077,0,250,111.93,250,250c0,138.077-111.923,250-250,250C111.93,500,0,388.077,0,250C0,111.93,111.93,0,250,0z"
	/>
</g></g><g transform="translate(77,35) scale(0.014,0.014)"><g transform="" style="fill: rgb(48, 191, 57);">
<path d="M250,0c138.077,0,250,111.93,250,250c0,138.077-111.923,250-250,250C111.93,500,0,388.077,0,250C0,111.93,111.93,0,250,0z"
	/>
</g></g><g transform="translate(133,35) scale(0.014,0.014)"><g transform="" style="fill: rgb(48, 191, 57);">
<path d="M250,0c138.077,0,250,111.93,250,250c0,138.077-111.923,250-250,250C111.93,500,0,388.077,0,250C0,111.93,111.93,0,250,0z"
	/>
</g></g><g transform="translate(140,35) scale(0.014,0.014)"><g transform="" style="fill: rgb(48, 191, 57);">
<path d="M250,0c138.077,0,250,111.93,250,250c0,138.077-111.923,250-250,250C111.93,500,0,388.077,0,250C0,111.93,111.93,0,250,0z"
	/>
</g></g><g transform="translate(147,35) scale(0.014,0.014)"><g transform="" style="fill: rgb(48, 191, 57);">
<path d="M250,0c138.077,0,250,111.93,250,250c0,138.077-111.923,250-250,250C111.93,500,0,388.077,0,250C0,111.93,111.93,0,250,0z"
	/>
</g></g><g transform="translate(154,35) scale(0.014,0.014)"><g transform="" style="fill: rgb(48, 191, 57);">
<path d="M250,0c138.077,0,250,111.93,250,250c0,138.077-111.923,250-250,250C111.93,500,0,388.077,0,250C0,111.93,111.93,0,250,0z"
	/>
</g></g><g transform="translate(161,35) scale(0.014,0.014)"><g transform="" style="fill: rgb(48, 191, 57);">
<path d="M250,0c138.077,0,250,111.93,250,250c0,138.077-111.923,250-250,250C111.93,500,0,388.077,0,250C0,111.93,111.93,0,250,0z"
	/>
</g></g><g transform="translate(56,42) scale(0.014,0.014)"><g transform="" style="fill: rgb(48, 191, 57);">
<path d="M250,0c138.077,0,250,111.93,250,250c0,138.077-111.923,250-250,250C111.93,500,0,388.077,0,250C0,111.93,111.93,0,250,0z"
	/>
</g></g><g transform="translate(70,42) scale(0.014,0.014)"><g transform="" style="fill: rgb(48, 191, 57);">
<path d="M250,0c138.077,0,250,111.93,250,250c0,138.077-111.923,250-250,250C111.93,500,0,388.077,0,250C0,111.93,111.93,0,250,0z"
	/>
</g></g><g transform="translate(84,42) scale(0.014,0.014)"><g transform="" style="fill: rgb(48, 191, 57);">
<path d="M250,0c138.077,0,250,111.93,250,250c0,138.077-111.923,250-250,250C111.93,500,0,388.077,0,250C0,111.93,111.93,0,250,0z"
	/>
</g></g><g transform="translate(98,42) scale(0.014,0.014)"><g transform="" style="fill: rgb(48, 191, 57);">
<path d="M250,0c138.077,0,250,111.93,250,250c0,138.077-111.923,250-250,250C111.93,500,0,388.077,0,250C0,111.93,111.93,0,250,0z"
	/>
</g></g><g transform="translate(112,42) scale(0.014,0.014)"><g transform="" style="fill: rgb(48, 191, 57);">
<path d="M250,0c138.077,0,250,111.93,250,250c0,138.077-111.923,250-250,250C111.93,500,0,388.077,0,250C0,111.93,111.93,0,250,0z"
	/>
</g></g><g transform="translate(126,42) scale(0.014,0.014)"><g transform="" style="fill: rgb(48, 191, 57);">
<path d="M250,0c138.077,0,250,111.93,250,250c0,138.077-111.923,250-250,250C111.93,500,0,388.077,0,250C0,111.93,111.93,0,250,0z"
	/>
</g></g><g transform="translate(140,42) scale(0.014,0.014)"><g transform="" style="fill: rgb(48, 191, 57);">
<path d="M250,0c138.077,0,250,111.93,250,250c0,138.077-111.923,250-250,250C111.93,500,0,388.077,0,250C0,111.93,111.93,0,250,0z"
	/>
</g></g><g transform="translate(154,42) scale(0.014,0.014)"><g transform="" style="fill: rgb(48, 191, 57);">
<path d="M250,0c138.077,0,250,111.93,250,250c0,138.077-111.923,250-250,250C111.93,500,0,388.077,0,250C0,111.93,111.93,0,250,0z"
	/>
</g></g><g transform="translate(168,42) scale(0.014,0.014)"><g transform="" style="fill: rgb(48, 191, 57);">
<path d="M250,0c138.077,0,250,111.93,250,250c0,138.077-111.923,250-250,250C111.93,500,0,388.077,0,250C0,111.93,111.93,0,250,0z"
	/>
</g></g><g transform="translate(56,49) scale(0.014,0.014)"><g transform="" style="fill: rgb(48, 191, 57);">
<path d="M250,0c138.077,0,250,111.93,250,250c0,138.077-111.923,250-250,250C111.93,500,0,388.077,0,250C0,111.93,111.93,0,250,0z"
	/>
</g></g><g transform="translate(63,49) scale(0.014,0.014)"><g transform="" style="fill: rgb(48, 191, 57);">
<path d="M250,0c138.077,0,250,111.93,250,250c0,138.077-111.923,250-250,250C111.93,500,0,388.077,0,250C0,111.93,111.93,0,250,0z"
	/>
</g></g><g transform="translate(77,49) scale(0.014,0.014)"><g transform="" style="fill: rgb(48, 191, 57);">
<path d="M250,0c138.077,0,250,111.93,250,250c0,138.077-111.923,250-250,250C111.93,500,0,388.077,0,250C0,111.93,111.93,0,250,0z"
	/>
</g></g><g transform="translate(112,49) scale(0.014,0.014)"><g transform="" style="fill: rgb(48, 191, 57);">
<path d="M250,0c138.077,0,250,111.93,250,250c0,138.077-111.923,250-250,250C111.93,500,0,388.077,0,250C0,111.93,111.93,0,250,0z"
	/>
</g></g><g transform="translate(154,49) scale(0.014,0.014)"><g transform="" style="fill: rgb(48, 191, 57);">
<path d="M250,0c138.077,0,250,111.93,250,250c0,138.077-111.923,250-250,250C111.93,500,0,388.077,0,250C0,111.93,111.93,0,250,0z"
	/>
</g></g><g transform="translate(168,49) scale(0.014,0.014)"><g transform="" style="fill: rgb(48, 191, 57);">
<path d="M250,0c138.077,0,250,111.93,250,250c0,138.077-111.923,250-250,250C111.93,500,0,388.077,0,250C0,111.93,111.93,0,250,0z"
	/>
</g></g><g transform="translate(14,56) scale(0.014,0.014)"><g transform="" style="fill: rgb(48, 191, 57);">
<path d="M250,0c138.077,0,250,111.93,250,250c0,138.077-111.923,250-250,250C111.93,500,0,388.077,0,250C0,111.93,111.93,0,250,0z"
	/>
</g></g><g transform="translate(21,56) scale(0.014,0.014)"><g transform="" style="fill: rgb(48, 191, 57);">
<path d="M250,0c138.077,0,250,111.93,250,250c0,138.077-111.923,250-250,250C111.93,500,0,388.077,0,250C0,111.93,111.93,0,250,0z"
	/>
</g></g><g transform="translate(42,56) scale(0.014,0.014)"><g transform="" style="fill: rgb(48, 191, 57);">
<path d="M250,0c138.077,0,250,111.93,250,250c0,138.077-111.923,250-250,250C111.93,500,0,388.077,0,250C0,111.93,111.93,0,250,0z"
	/>
</g></g><g transform="translate(49,56) scale(0.014,0.014)"><g transform="" style="fill: rgb(48, 191, 57);">
<path d="M250,0c138.077,0,250,111.93,250,250c0,138.077-111.923,250-250,250C111.93,500,0,388.077,0,250C0,111.93,111.93,0,250,0z"
	/>
</g></g><g transform="translate(56,56) scale(0.014,0.014)"><g transform="" style="fill: rgb(48, 191, 57);">
<path d="M250,0c138.077,0,250,111.93,250,250c0,138.077-111.923,250-250,250C111.93,500,0,388.077,0,250C0,111.93,111.93,0,250,0z"
	/>
</g></g><g transform="translate(63,56) scale(0.014,0.014)"><g transform="" style="fill: rgb(48, 191, 57);">
<path d="M250,0c138.077,0,250,111.93,250,250c0,138.077-111.923,250-250,250C111.93,500,0,388.077,0,250C0,111.93,111.93,0,250,0z"
	/>
</g></g><g transform="translate(77,56) scale(0.014,0.014)"><g transform="" style="fill: rgb(48, 191, 57);">
<path d="M250,0c138.077,0,250,111.93,250,250c0,138.077-111.923,250-250,250C111.93,500,0,388.077,0,250C0,111.93,111.93,0,250,0z"
	/>
</g></g><g transform="translate(98,56) scale(0.014,0.014)"><g transform="" style="fill: rgb(48, 191, 57);">
<path d="M250,0c138.077,0,250,111.93,250,250c0,138.077-111.923,250-250,250C111.93,500,0,388.077,0,250C0,111.93,111.93,0,250,0z"
	/>
</g></g><g transform="translate(133,56) scale(0.014,0.014)"><g transform="" style="fill: rgb(48, 191, 57);">
<path d="M250,0c138.077,0,250,111.93,250,250c0,138.077-111.923,250-250,250C111.93,500,0,388.077,0,250C0,111.93,111.93,0,250,0z"
	/>
</g></g><g transform="translate(140,56) scale(0.014,0.014)"><g transform="" style="fill: rgb(48, 191, 57);">
<path d="M250,0c138.077,0,250,111.93,250,250c0,138.077-111.923,250-250,250C111.93,500,0,388.077,0,250C0,111.93,111.93,0,250,0z"
	/>
</g></g><g transform="translate(147,56) scale(0.014,0.014)"><g transform="" style="fill: rgb(48, 191, 57);">
<path d="M250,0c138.077,0,250,111.93,250,250c0,138.077-111.923,250-250,250C111.93,500,0,388.077,0,250C0,111.93,111.93,0,250,0z"
	/>
</g></g><g transform="translate(154,56) scale(0.014,0.014)"><g transform="" style="fill: rgb(48, 191, 57);">
<path d="M250,0c138.077,0,250,111.93,250,250c0,138.077-111.923,250-250,250C111.93,500,0,388.077,0,250C0,111.93,111.93,0,250,0z"
	/>
</g></g><g transform="translate(161,56) scale(0.014,0.014)"><g transform="" style="fill: rgb(48, 191, 57);">
<path d="M250,0c138.077,0,250,111.93,250,250c0,138.077-111.923,250-250,250C111.93,500,0,388.077,0,250C0,111.93,111.93,0,250,0z"
	/>
</g></g><g transform="translate(168,56) scale(0.014,0.014)"><g transform="" style="fill: rgb(48, 191, 57);">
<path d="M250,0c138.077,0,250,111.93,250,250c0,138.077-111.923,250-250,250C111.93,500,0,388.077,0,250C0,111.93,111.93,0,250,0z"
	/>
</g></g><g transform="translate(175,56) scale(0.014,0.014)"><g transform="" style="fill: rgb(48, 191, 57);">
<path d="M250,0c138.077,0,250,111.93,250,250c0,138.077-111.923,250-250,250C111.93,500,0,388.077,0,250C0,111.93,111.93,0,250,0z"
	/>
</g></g><g transform="translate(182,56) scale(0.014,0.014)"><g transform="" style="fill: rgb(48, 191, 57);">
<path d="M250,0c138.077,0,250,111.93,250,250c0,138.077-111.923,250-250,250C111.93,500,0,388.077,0,250C0,111.93,111.93,0,250,0z"
	/>
</g></g><g transform="translate(196,56) scale(0.014,0.014)"><g transform="" style="fill: rgb(48, 191, 57);">
<path d="M250,0c138.077,0,250,111.93,250,250c0,138.077-111.923,250-250,250C111.93,500,0,388.077,0,250C0,111.93,111.93,0,250,0z"
	/>
</g></g><g transform="translate(7,63) scale(0.014,0.014)"><g transform="" style="fill: rgb(48, 191, 57);">
<path d="M250,0c138.077,0,250,111.93,250,250c0,138.077-111.923,250-250,250C111.93,500,0,388.077,0,250C0,111.93,111.93,0,250,0z"
	/>
</g></g><g transform="translate(14,63) scale(0.014,0.014)"><g transform="" style="fill: rgb(48, 191, 57);">
<path d="M250,0c138.077,0,250,111.93,250,250c0,138.077-111.923,250-250,250C111.93,500,0,388.077,0,250C0,111.93,111.93,0,250,0z"
	/>
</g></g><g transform="translate(28,63) scale(0.014,0.014)"><g transform="" style="fill: rgb(48, 191, 57);">
<path d="M250,0c138.077,0,250,111.93,250,250c0,138.077-111.923,250-250,250C111.93,500,0,388.077,0,250C0,111.93,111.93,0,250,0z"
	/>
</g></g><g transform="translate(35,63) scale(0.014,0.014)"><g transform="" style="fill: rgb(48, 191, 57);">
<path d="M250,0c138.077,0,250,111.93,250,250c0,138.077-111.923,250-250,250C111.93,500,0,388.077,0,250C0,111.93,111.93,0,250,0z"
	/>
</g></g><g transform="translate(77,63) scale(0.014,0.014)"><g transform="" style="fill: rgb(48, 191, 57);">
<path d="M250,0c138.077,0,250,111.93,250,250c0,138.077-111.923,250-250,250C111.93,500,0,388.077,0,250C0,111.93,111.93,0,250,0z"
	/>
</g></g><g transform="translate(84,63) scale(0.014,0.014)"><g transform="" style="fill: rgb(48, 191, 57);">
<path d="M250,0c138.077,0,250,111.93,250,250c0,138.077-111.923,250-250,250C111.93,500,0,388.077,0,250C0,111.93,111.93,0,250,0z"
	/>
</g></g><g transform="translate(91,63) scale(0.014,0.014)"><g transform="" style="fill: rgb(48, 191, 57);">
<path d="M250,0c138.077,0,250,111.93,250,250c0,138.077-111.923,250-250,250C111.93,500,0,388.077,0,250C0,111.93,111.93,0,250,0z"
	/>
</g></g><g transform="translate(98,63) scale(0.014,0.014)"><g transform="" style="fill: rgb(48, 191, 57);">
<path d="M250,0c138.077,0,250,111.93,250,250c0,138.077-111.923,250-250,250C111.93,500,0,388.077,0,250C0,111.93,111.93,0,250,0z"
	/>
</g></g><g transform="translate(105,63) scale(0.014,0.014)"><g transform="" style="fill: rgb(48, 191, 57);">
<path d="M250,0c138.077,0,250,111.93,250,250c0,138.077-111.923,250-250,250C111.93,500,0,388.077,0,250C0,111.93,111.93,0,250,0z"
	/>
</g></g><g transform="translate(119,63) scale(0.014,0.014)"><g transform="" style="fill: rgb(48, 191, 57);">
<path d="M250,0c138.077,0,250,111.93,250,250c0,138.077-111.923,250-250,250C111.93,500,0,388.077,0,250C0,111.93,111.93,0,250,0z"
	/>
</g></g><g transform="translate(126,63) scale(0.014,0.014)"><g transform="" style="fill: rgb(48, 191, 57);">
<path d="M250,0c138.077,0,250,111.93,250,250c0,138.077-111.923,250-250,250C111.93,500,0,388.077,0,250C0,111.93,111.93,0,250,0z"
	/>
</g></g><g transform="translate(133,63) scale(0.014,0.014)"><g transform="" style="fill: rgb(48, 191, 57);">
<path d="M250,0c138.077,0,250,111.93,250,250c0,138.077-111.923,250-250,250C111.93,500,0,388.077,0,250C0,111.93,111.93,0,250,0z"
	/>
</g></g><g transform="translate(147,63) scale(0.014,0.014)"><g transform="" style="fill: rgb(48, 191, 57);">
<path d="M250,0c138.077,0,250,111.93,250,250c0,138.077-111.923,250-250,250C111.93,500,0,388.077,0,250C0,111.93,111.93,0,250,0z"
	/>
</g></g><g transform="translate(154,63) scale(0.014,0.014)"><g transform="" style="fill: rgb(48, 191, 57);">
<path d="M250,0c138.077,0,250,111.93,250,250c0,138.077-111.923,250-250,250C111.93,500,0,388.077,0,250C0,111.93,111.93,0,250,0z"
	/>
</g></g><g transform="translate(161,63) scale(0.014,0.014)"><g transform="" style="fill: rgb(48, 191, 57);">
<path d="M250,0c138.077,0,250,111.93,250,250c0,138.077-111.923,250-250,250C111.93,500,0,388.077,0,250C0,111.93,111.93,0,250,0z"
	/>
</g></g><g transform="translate(168,63) scale(0.014,0.014)"><g transform="" style="fill: rgb(48, 191, 57);">
<path d="M250,0c138.077,0,250,111.93,250,250c0,138.077-111.923,250-250,250C111.93,500,0,388.077,0,250C0,111.93,111.93,0,250,0z"
	/>
</g></g><g transform="translate(175,63) scale(0.014,0.014)"><g transform="" style="fill: rgb(48, 191, 57);">
<path d="M250,0c138.077,0,250,111.93,250,250c0,138.077-111.923,250-250,250C111.93,500,0,388.077,0,250C0,111.93,111.93,0,250,0z"
	/>
</g></g><g transform="translate(182,63) scale(0.014,0.014)"><g transform="" style="fill: rgb(48, 191, 57);">
<path d="M250,0c138.077,0,250,111.93,250,250c0,138.077-111.923,250-250,250C111.93,500,0,388.077,0,250C0,111.93,111.93,0,250,0z"
	/>
</g></g><g transform="translate(210,63) scale(0.014,0.014)"><g transform="" style="fill: rgb(48, 191, 57);">
<path d="M250,0c138.077,0,250,111.93,250,250c0,138.077-111.923,250-250,250C111.93,500,0,388.077,0,250C0,111.93,111.93,0,250,0z"
	/>
</g></g><g transform="translate(224,63) scale(0.014,0.014)"><g transform="" style="fill: rgb(48, 191, 57);">
<path d="M250,0c138.077,0,250,111.93,250,250c0,138.077-111.923,250-250,250C111.93,500,0,388.077,0,250C0,111.93,111.93,0,250,0z"
	/>
</g></g><g transform="translate(7,70) scale(0.014,0.014)"><g transform="" style="fill: rgb(48, 191, 57);">
<path d="M250,0c138.077,0,250,111.93,250,250c0,138.077-111.923,250-250,250C111.93,500,0,388.077,0,250C0,111.93,111.93,0,250,0z"
	/>
</g></g><g transform="translate(28,70) scale(0.014,0.014)"><g transform="" style="fill: rgb(48, 191, 57);">
<path d="M250,0c138.077,0,250,111.93,250,250c0,138.077-111.923,250-250,250C111.93,500,0,388.077,0,250C0,111.93,111.93,0,250,0z"
	/>
</g></g><g transform="translate(42,70) scale(0.014,0.014)"><g transform="" style="fill: rgb(48, 191, 57);">
<path d="M250,0c138.077,0,250,111.93,250,250c0,138.077-111.923,250-250,250C111.93,500,0,388.077,0,250C0,111.93,111.93,0,250,0z"
	/>
</g></g><g transform="translate(56,70) scale(0.014,0.014)"><g transform="" style="fill: rgb(48, 191, 57);">
<path d="M250,0c138.077,0,250,111.93,250,250c0,138.077-111.923,250-250,250C111.93,500,0,388.077,0,250C0,111.93,111.93,0,250,0z"
	/>
</g></g><g transform="translate(63,70) scale(0.014,0.014)"><g transform="" style="fill: rgb(48, 191, 57);">
<path d="M250,0c138.077,0,250,111.93,250,250c0,138.077-111.923,250-250,250C111.93,500,0,388.077,0,250C0,111.93,111.93,0,250,0z"
	/>
</g></g><g transform="translate(105,70) scale(0.014,0.014)"><g transform="" style="fill: rgb(48, 191, 57);">
<path d="M250,0c138.077,0,250,111.93,250,250c0,138.077-111.923,250-250,250C111.93,500,0,388.077,0,250C0,111.93,111.93,0,250,0z"
	/>
</g></g><g transform="translate(126,70) scale(0.014,0.014)"><g transform="" style="fill: rgb(48, 191, 57);">
<path d="M250,0c138.077,0,250,111.93,250,250c0,138.077-111.923,250-250,250C111.93,500,0,388.077,0,250C0,111.93,111.93,0,250,0z"
	/>
</g></g><g transform="translate(133,70) scale(0.014,0.014)"><g transform="" style="fill: rgb(48, 191, 57);">
<path d="M250,0c138.077,0,250,111.93,250,250c0,138.077-111.923,250-250,250C111.93,500,0,388.077,0,250C0,111.93,111.93,0,250,0z"
	/>
</g></g><g transform="translate(161,70) scale(0.014,0.014)"><g transform="" style="fill: rgb(48, 191, 57);">
<path d="M250,0c138.077,0,250,111.93,250,250c0,138.077-111.923,250-250,250C111.93,500,0,388.077,0,250C0,111.93,111.93,0,250,0z"
	/>
</g></g><g transform="translate(175,70) scale(0.014,0.014)"><g transform="" style="fill: rgb(48, 191, 57);">
<path d="M250,0c138.077,0,250,111.93,250,250c0,138.077-111.923,250-250,250C111.93,500,0,388.077,0,250C0,111.93,111.93,0,250,0z"
	/>
</g></g><g transform="translate(210,70) scale(0.014,0.014)"><g transform="" style="fill: rgb(48, 191, 57);">
<path d="M250,0c138.077,0,250,111.93,250,250c0,138.077-111.923,250-250,250C111.93,500,0,388.077,0,250C0,111.93,111.93,0,250,0z"
	/>
</g></g><g transform="translate(217,70) scale(0.014,0.014)"><g transform="" style="fill: rgb(48, 191, 57);">
<path d="M250,0c138.077,0,250,111.93,250,250c0,138.077-111.923,250-250,250C111.93,500,0,388.077,0,250C0,111.93,111.93,0,250,0z"
	/>
</g></g><g transform="translate(224,70) scale(0.014,0.014)"><g transform="" style="fill: rgb(48, 191, 57);">
<path d="M250,0c138.077,0,250,111.93,250,250c0,138.077-111.923,250-250,250C111.93,500,0,388.077,0,250C0,111.93,111.93,0,250,0z"
	/>
</g></g><g transform="translate(0,77) scale(0.014,0.014)"><g transform="" style="fill: rgb(48, 191, 57);">
<path d="M250,0c138.077,0,250,111.93,250,250c0,138.077-111.923,250-250,250C111.93,500,0,388.077,0,250C0,111.93,111.93,0,250,0z"
	/>
</g></g><g transform="translate(14,77) scale(0.014,0.014)"><g transform="" style="fill: rgb(48, 191, 57);">
<path d="M250,0c138.077,0,250,111.93,250,250c0,138.077-111.923,250-250,250C111.93,500,0,388.077,0,250C0,111.93,111.93,0,250,0z"
	/>
</g></g><g transform="translate(21,77) scale(0.014,0.014)"><g transform="" style="fill: rgb(48, 191, 57);">
<path d="M250,0c138.077,0,250,111.93,250,250c0,138.077-111.923,250-250,250C111.93,500,0,388.077,0,250C0,111.93,111.93,0,250,0z"
	/>
</g></g><g transform="translate(28,77) scale(0.014,0.014)"><g transform="" style="fill: rgb(48, 191, 57);">
<path d="M250,0c138.077,0,250,111.93,250,250c0,138.077-111.923,250-250,250C111.93,500,0,388.077,0,250C0,111.93,111.93,0,250,0z"
	/>
</g></g><g transform="translate(49,77) scale(0.014,0.014)"><g transform="" style="fill: rgb(48, 191, 57);">
<path d="M250,0c138.077,0,250,111.93,250,250c0,138.077-111.923,250-250,250C111.93,500,0,388.077,0,250C0,111.93,111.93,0,250,0z"
	/>
</g></g><g transform="translate(63,77) scale(0.014,0.014)"><g transform="" style="fill: rgb(48, 191, 57);">
<path d="M250,0c138.077,0,250,111.93,250,250c0,138.077-111.923,250-250,250C111.93,500,0,388.077,0,250C0,111.93,111.93,0,250,0z"
	/>
</g></g><g transform="translate(70,77) scale(0.014,0.014)"><g transform="" style="fill: rgb(48, 191, 57);">
<path d="M250,0c138.077,0,250,111.93,250,250c0,138.077-111.923,250-250,250C111.93,500,0,388.077,0,250C0,111.93,111.93,0,250,0z"
	/>
</g></g><g transform="translate(161,77) scale(0.014,0.014)"><g transform="" style="fill: rgb(48, 191, 57);">
<path d="M250,0c138.077,0,250,111.93,250,250c0,138.077-111.923,250-250,250C111.93,500,0,388.077,0,250C0,111.93,111.93,0,250,0z"
	/>
</g></g><g transform="translate(168,77) scale(0.014,0.014)"><g transform="" style="fill: rgb(48, 191, 57);">
<path d="M250,0c138.077,0,250,111.93,250,250c0,138.077-111.923,250-250,250C111.93,500,0,388.077,0,250C0,111.93,111.93,0,250,0z"
	/>
</g></g><g transform="translate(189,77) scale(0.014,0.014)"><g transform="" style="fill: rgb(48, 191, 57);">
<path d="M250,0c138.077,0,250,111.93,250,250c0,138.077-111.923,250-250,250C111.93,500,0,388.077,0,250C0,111.93,111.93,0,250,0z"
	/>
</g></g><g transform="translate(196,77) scale(0.014,0.014)"><g transform="" style="fill: rgb(48, 191, 57);">
<path d="M250,0c138.077,0,250,111.93,250,250c0,138.077-111.923,250-250,250C111.93,500,0,388.077,0,250C0,111.93,111.93,0,250,0z"
	/>
</g></g><g transform="translate(224,77) scale(0.014,0.014)"><g transform="" style="fill: rgb(48, 191, 57);">
<path d="M250,0c138.077,0,250,111.93,250,250c0,138.077-111.923,250-250,250C111.93,500,0,388.077,0,250C0,111.93,111.93,0,250,0z"
	/>
</g></g><g transform="translate(14,84) scale(0.014,0.014)"><g transform="" style="fill: rgb(48, 191, 57);">
<path d="M250,0c138.077,0,250,111.93,250,250c0,138.077-111.923,250-250,250C111.93,500,0,388.077,0,250C0,111.93,111.93,0,250,0z"
	/>
</g></g><g transform="translate(42,84) scale(0.014,0.014)"><g transform="" style="fill: rgb(48, 191, 57);">
<path d="M250,0c138.077,0,250,111.93,250,250c0,138.077-111.923,250-250,250C111.93,500,0,388.077,0,250C0,111.93,111.93,0,250,0z"
	/>
</g></g><g transform="translate(49,84) scale(0.014,0.014)"><g transform="" style="fill: rgb(48, 191, 57);">
<path d="M250,0c138.077,0,250,111.93,250,250c0,138.077-111.923,250-250,250C111.93,500,0,388.077,0,250C0,111.93,111.93,0,250,0z"
	/>
</g></g><g transform="translate(56,84) scale(0.014,0.014)"><g transform="" style="fill: rgb(48, 191, 57);">
<path d="M250,0c138.077,0,250,111.93,250,250c0,138.077-111.923,250-250,250C111.93,500,0,388.077,0,250C0,111.93,111.93,0,250,0z"
	/>
</g></g><g transform="translate(63,84) scale(0.014,0.014)"><g transform="" style="fill: rgb(48, 191, 57);">
<path d="M250,0c138.077,0,250,111.93,250,250c0,138.077-111.923,250-250,250C111.93,500,0,388.077,0,250C0,111.93,111.93,0,250,0z"
	/>
</g></g><g transform="translate(70,84) scale(0.014,0.014)"><g transform="" style="fill: rgb(48, 191, 57);">
<path d="M250,0c138.077,0,250,111.93,250,250c0,138.077-111.923,250-250,250C111.93,500,0,388.077,0,250C0,111.93,111.93,0,250,0z"
	/>
</g></g><g transform="translate(175,84) scale(0.014,0.014)"><g transform="" style="fill: rgb(48, 191, 57);">
<path d="M250,0c138.077,0,250,111.93,250,250c0,138.077-111.923,250-250,250C111.93,500,0,388.077,0,250C0,111.93,111.93,0,250,0z"
	/>
</g></g><g transform="translate(203,84) scale(0.014,0.014)"><g transform="" style="fill: rgb(48, 191, 57);">
<path d="M250,0c138.077,0,250,111.93,250,250c0,138.077-111.923,250-250,250C111.93,500,0,388.077,0,250C0,111.93,111.93,0,250,0z"
	/>
</g></g><g transform="translate(217,84) scale(0.014,0.014)"><g transform="" style="fill: rgb(48, 191, 57);">
<path d="M250,0c138.077,0,250,111.93,250,250c0,138.077-111.923,250-250,250C111.93,500,0,388.077,0,250C0,111.93,111.93,0,250,0z"
	/>
</g></g><g transform="translate(28,91) scale(0.014,0.014)"><g transform="" style="fill: rgb(48, 191, 57);">
<path d="M250,0c138.077,0,250,111.93,250,250c0,138.077-111.923,250-250,250C111.93,500,0,388.077,0,250C0,111.93,111.93,0,250,0z"
	/>
</g></g><g transform="translate(56,91) scale(0.014,0.014)"><g transform="" style="fill: rgb(48, 191, 57);">
<path d="M250,0c138.077,0,250,111.93,250,250c0,138.077-111.923,250-250,250C111.93,500,0,388.077,0,250C0,111.93,111.93,0,250,0z"
	/>
</g></g><g transform="translate(63,91) scale(0.014,0.014)"><g transform="" style="fill: rgb(48, 191, 57);">
<path d="M250,0c138.077,0,250,111.93,250,250c0,138.077-111.923,250-250,250C111.93,500,0,388.077,0,250C0,111.93,111.93,0,250,0z"
	/>
</g></g><g transform="translate(154,91) scale(0.014,0.014)"><g transform="" style="fill: rgb(48, 191, 57);">
<path d="M250,0c138.077,0,250,111.93,250,250c0,138.077-111.923,250-250,250C111.93,500,0,388.077,0,250C0,111.93,111.93,0,250,0z"
	/>
</g></g><g transform="translate(0,98) scale(0.014,0.014)"><g transform="" style="fill: rgb(48, 191, 57);">
<path d="M250,0c138.077,0,250,111.93,250,250c0,138.077-111.923,250-250,250C111.93,500,0,388.077,0,250C0,111.93,111.93,0,250,0z"
	/>
</g></g><g transform="translate(14,98) scale(0.014,0.014)"><g transform="" style="fill: rgb(48, 191, 57);">
<path d="M250,0c138.077,0,250,111.93,250,250c0,138.077-111.923,250-250,250C111.93,500,0,388.077,0,250C0,111.93,111.93,0,250,0z"
	/>
</g></g><g transform="translate(28,98) scale(0.014,0.014)"><g transform="" style="fill: rgb(48, 191, 57);">
<path d="M250,0c138.077,0,250,111.93,250,250c0,138.077-111.923,250-250,250C111.93,500,0,388.077,0,250C0,111.93,111.93,0,250,0z"
	/>
</g></g><g transform="translate(35,98) scale(0.014,0.014)"><g transform="" style="fill: rgb(48, 191, 57);">
<path d="M250,0c138.077,0,250,111.93,250,250c0,138.077-111.923,250-250,250C111.93,500,0,388.077,0,250C0,111.93,111.93,0,250,0z"
	/>
</g></g><g transform="translate(42,98) scale(0.014,0.014)"><g transform="" style="fill: rgb(48, 191, 57);">
<path d="M250,0c138.077,0,250,111.93,250,250c0,138.077-111.923,250-250,250C111.93,500,0,388.077,0,250C0,111.93,111.93,0,250,0z"
	/>
</g></g><g transform="translate(49,98) scale(0.014,0.014)"><g transform="" style="fill: rgb(48, 191, 57);">
<path d="M250,0c138.077,0,250,111.93,250,250c0,138.077-111.923,250-250,250C111.93,500,0,388.077,0,250C0,111.93,111.93,0,250,0z"
	/>
</g></g><g transform="translate(63,98) scale(0.014,0.014)"><g transform="" style="fill: rgb(48, 191, 57);">
<path d="M250,0c138.077,0,250,111.93,250,250c0,138.077-111.923,250-250,250C111.93,500,0,388.077,0,250C0,111.93,111.93,0,250,0z"
	/>
</g></g><g transform="translate(70,98) scale(0.014,0.014)"><g transform="" style="fill: rgb(48, 191, 57);">
<path d="M250,0c138.077,0,250,111.93,250,250c0,138.077-111.923,250-250,250C111.93,500,0,388.077,0,250C0,111.93,111.93,0,250,0z"
	/>
</g></g><g transform="translate(168,98) scale(0.014,0.014)"><g transform="" style="fill: rgb(48, 191, 57);">
<path d="M250,0c138.077,0,250,111.93,250,250c0,138.077-111.923,250-250,250C111.93,500,0,388.077,0,250C0,111.93,111.93,0,250,0z"
	/>
</g></g><g transform="translate(189,98) scale(0.014,0.014)"><g transform="" style="fill: rgb(48, 191, 57);">
<path d="M250,0c138.077,0,250,111.93,250,250c0,138.077-111.923,250-250,250C111.93,500,0,388.077,0,250C0,111.93,111.93,0,250,0z"
	/>
</g></g><g transform="translate(196,98) scale(0.014,0.014)"><g transform="" style="fill: rgb(48, 191, 57);">
<path d="M250,0c138.077,0,250,111.93,250,250c0,138.077-111.923,250-250,250C111.93,500,0,388.077,0,250C0,111.93,111.93,0,250,0z"
	/>
</g></g><g transform="translate(210,98) scale(0.014,0.014)"><g transform="" style="fill: rgb(48, 191, 57);">
<path d="M250,0c138.077,0,250,111.93,250,250c0,138.077-111.923,250-250,250C111.93,500,0,388.077,0,250C0,111.93,111.93,0,250,0z"
	/>
</g></g><g transform="translate(0,105) scale(0.014,0.014)"><g transform="" style="fill: rgb(48, 191, 57);">
<path d="M250,0c138.077,0,250,111.93,250,250c0,138.077-111.923,250-250,250C111.93,500,0,388.077,0,250C0,111.93,111.93,0,250,0z"
	/>
</g></g><g transform="translate(7,105) scale(0.014,0.014)"><g transform="" style="fill: rgb(48, 191, 57);">
<path d="M250,0c138.077,0,250,111.93,250,250c0,138.077-111.923,250-250,250C111.93,500,0,388.077,0,250C0,111.93,111.93,0,250,0z"
	/>
</g></g><g transform="translate(49,105) scale(0.014,0.014)"><g transform="" style="fill: rgb(48, 191, 57);">
<path d="M250,0c138.077,0,250,111.93,250,250c0,138.077-111.923,250-250,250C111.93,500,0,388.077,0,250C0,111.93,111.93,0,250,0z"
	/>
</g></g><g transform="translate(70,105) scale(0.014,0.014)"><g transform="" style="fill: rgb(48, 191, 57);">
<path d="M250,0c138.077,0,250,111.93,250,250c0,138.077-111.923,250-250,250C111.93,500,0,388.077,0,250C0,111.93,111.93,0,250,0z"
	/>
</g></g><g transform="translate(154,105) scale(0.014,0.014)"><g transform="" style="fill: rgb(48, 191, 57);">
<path d="M250,0c138.077,0,250,111.93,250,250c0,138.077-111.923,250-250,250C111.93,500,0,388.077,0,250C0,111.93,111.93,0,250,0z"
	/>
</g></g><g transform="translate(161,105) scale(0.014,0.014)"><g transform="" style="fill: rgb(48, 191, 57);">
<path d="M250,0c138.077,0,250,111.93,250,250c0,138.077-111.923,250-250,250C111.93,500,0,388.077,0,250C0,111.93,111.93,0,250,0z"
	/>
</g></g><g transform="translate(182,105) scale(0.014,0.014)"><g transform="" style="fill: rgb(48, 191, 57);">
<path d="M250,0c138.077,0,250,111.93,250,250c0,138.077-111.923,250-250,250C111.93,500,0,388.077,0,250C0,111.93,111.93,0,250,0z"
	/>
</g></g><g transform="translate(189,105) scale(0.014,0.014)"><g transform="" style="fill: rgb(48, 191, 57);">
<path d="M250,0c138.077,0,250,111.93,250,250c0,138.077-111.923,250-250,250C111.93,500,0,388.077,0,250C0,111.93,111.93,0,250,0z"
	/>
</g></g><g transform="translate(210,105) scale(0.014,0.014)"><g transform="" style="fill: rgb(48, 191, 57);">
<path d="M250,0c138.077,0,250,111.93,250,250c0,138.077-111.923,250-250,250C111.93,500,0,388.077,0,250C0,111.93,111.93,0,250,0z"
	/>
</g></g><g transform="translate(217,105) scale(0.014,0.014)"><g transform="" style="fill: rgb(48, 191, 57);">
<path d="M250,0c138.077,0,250,111.93,250,250c0,138.077-111.923,250-250,250C111.93,500,0,388.077,0,250C0,111.93,111.93,0,250,0z"
	/>
</g></g><g transform="translate(224,105) scale(0.014,0.014)"><g transform="" style="fill: rgb(48, 191, 57);">
<path d="M250,0c138.077,0,250,111.93,250,250c0,138.077-111.923,250-250,250C111.93,500,0,388.077,0,250C0,111.93,111.93,0,250,0z"
	/>
</g></g><g transform="translate(0,112) scale(0.014,0.014)"><g transform="" style="fill: rgb(48, 191, 57);">
<path d="M250,0c138.077,0,250,111.93,250,250c0,138.077-111.923,250-250,250C111.93,500,0,388.077,0,250C0,111.93,111.93,0,250,0z"
	/>
</g></g><g transform="translate(14,112) scale(0.014,0.014)"><g transform="" style="fill: rgb(48, 191, 57);">
<path d="M250,0c138.077,0,250,111.93,250,250c0,138.077-111.923,250-250,250C111.93,500,0,388.077,0,250C0,111.93,111.93,0,250,0z"
	/>
</g></g><g transform="translate(21,112) scale(0.014,0.014)"><g transform="" style="fill: rgb(48, 191, 57);">
<path d="M250,0c138.077,0,250,111.93,250,250c0,138.077-111.923,250-250,250C111.93,500,0,388.077,0,250C0,111.93,111.93,0,250,0z"
	/>
</g></g><g transform="translate(42,112) scale(0.014,0.014)"><g transform="" style="fill: rgb(48, 191, 57);">
<path d="M250,0c138.077,0,250,111.93,250,250c0,138.077-111.923,250-250,250C111.93,500,0,388.077,0,250C0,111.93,111.93,0,250,0z"
	/>
</g></g><g transform="translate(49,112) scale(0.014,0.014)"><g transform="" style="fill: rgb(48, 191, 57);">
<path d="M250,0c138.077,0,250,111.93,250,250c0,138.077-111.923,250-250,250C111.93,500,0,388.077,0,250C0,111.93,111.93,0,250,0z"
	/>
</g></g><g transform="translate(56,112) scale(0.014,0.014)"><g transform="" style="fill: rgb(48, 191, 57);">
<path d="M250,0c138.077,0,250,111.93,250,250c0,138.077-111.923,250-250,250C111.93,500,0,388.077,0,250C0,111.93,111.93,0,250,0z"
	/>
</g></g><g transform="translate(70,112) scale(0.014,0.014)"><g transform="" style="fill: rgb(48, 191, 57);">
<path d="M250,0c138.077,0,250,111.93,250,250c0,138.077-111.923,250-250,250C111.93,500,0,388.077,0,250C0,111.93,111.93,0,250,0z"
	/>
</g></g><g transform="translate(168,112) scale(0.014,0.014)"><g transform="" style="fill: rgb(48, 191, 57);">
<path d="M250,0c138.077,0,250,111.93,250,250c0,138.077-111.923,250-250,250C111.93,500,0,388.077,0,250C0,111.93,111.93,0,250,0z"
	/>
</g></g><g transform="translate(182,112) scale(0.014,0.014)"><g transform="" style="fill: rgb(48, 191, 57);">
<path d="M250,0c138.077,0,250,111.93,250,250c0,138.077-111.923,250-250,250C111.93,500,0,388.077,0,250C0,111.93,111.93,0,250,0z"
	/>
</g></g><g transform="translate(189,112) scale(0.014,0.014)"><g transform="" style="fill: rgb(48, 191, 57);">
<path d="M250,0c138.077,0,250,111.93,250,250c0,138.077-111.923,250-250,250C111.93,500,0,388.077,0,250C0,111.93,111.93,0,250,0z"
	/>
</g></g><g transform="translate(196,112) scale(0.014,0.014)"><g transform="" style="fill: rgb(48, 191, 57);">
<path d="M250,0c138.077,0,250,111.93,250,250c0,138.077-111.923,250-250,250C111.93,500,0,388.077,0,250C0,111.93,111.93,0,250,0z"
	/>
</g></g><g transform="translate(203,112) scale(0.014,0.014)"><g transform="" style="fill: rgb(48, 191, 57);">
<path d="M250,0c138.077,0,250,111.93,250,250c0,138.077-111.923,250-250,250C111.93,500,0,388.077,0,250C0,111.93,111.93,0,250,0z"
	/>
</g></g><g transform="translate(7,119) scale(0.014,0.014)"><g transform="" style="fill: rgb(48, 191, 57);">
<path d="M250,0c138.077,0,250,111.93,250,250c0,138.077-111.923,250-250,250C111.93,500,0,388.077,0,250C0,111.93,111.93,0,250,0z"
	/>
</g></g><g transform="translate(14,119) scale(0.014,0.014)"><g transform="" style="fill: rgb(48, 191, 57);">
<path d="M250,0c138.077,0,250,111.93,250,250c0,138.077-111.923,250-250,250C111.93,500,0,388.077,0,250C0,111.93,111.93,0,250,0z"
	/>
</g></g><g transform="translate(21,119) scale(0.014,0.014)"><g transform="" style="fill: rgb(48, 191, 57);">
<path d="M250,0c138.077,0,250,111.93,250,250c0,138.077-111.923,250-250,250C111.93,500,0,388.077,0,250C0,111.93,111.93,0,250,0z"
	/>
</g></g><g transform="translate(35,119) scale(0.014,0.014)"><g transform="" style="fill: rgb(48, 191, 57);">
<path d="M250,0c138.077,0,250,111.93,250,250c0,138.077-111.923,250-250,250C111.93,500,0,388.077,0,250C0,111.93,111.93,0,250,0z"
	/>
</g></g><g transform="translate(63,119) scale(0.014,0.014)"><g transform="" style="fill: rgb(48, 191, 57);">
<path d="M250,0c138.077,0,250,111.93,250,250c0,138.077-111.923,250-250,250C111.93,500,0,388.077,0,250C0,111.93,111.93,0,250,0z"
	/>
</g></g><g transform="translate(70,119) scale(0.014,0.014)"><g transform="" style="fill: rgb(48, 191, 57);">
<path d="M250,0c138.077,0,250,111.93,250,250c0,138.077-111.923,250-250,250C111.93,500,0,388.077,0,250C0,111.93,111.93,0,250,0z"
	/>
</g></g><g transform="translate(154,119) scale(0.014,0.014)"><g transform="" style="fill: rgb(48, 191, 57);">
<path d="M250,0c138.077,0,250,111.93,250,250c0,138.077-111.923,250-250,250C111.93,500,0,388.077,0,250C0,111.93,111.93,0,250,0z"
	/>
</g></g><g transform="translate(161,119) scale(0.014,0.014)"><g transform="" style="fill: rgb(48, 191, 57);">
<path d="M250,0c138.077,0,250,111.93,250,250c0,138.077-111.923,250-250,250C111.93,500,0,388.077,0,250C0,111.93,111.93,0,250,0z"
	/>
</g></g><g transform="translate(182,119) scale(0.014,0.014)"><g transform="" style="fill: rgb(48, 191, 57);">
<path d="M250,0c138.077,0,250,111.93,250,250c0,138.077-111.923,250-250,250C111.93,500,0,388.077,0,250C0,111.93,111.93,0,250,0z"
	/>
</g></g><g transform="translate(196,119) scale(0.014,0.014)"><g transform="" style="fill: rgb(48, 191, 57);">
<path d="M250,0c138.077,0,250,111.93,250,250c0,138.077-111.923,250-250,250C111.93,500,0,388.077,0,250C0,111.93,111.93,0,250,0z"
	/>
</g></g><g transform="translate(210,119) scale(0.014,0.014)"><g transform="" style="fill: rgb(48, 191, 57);">
<path d="M250,0c138.077,0,250,111.93,250,250c0,138.077-111.923,250-250,250C111.93,500,0,388.077,0,250C0,111.93,111.93,0,250,0z"
	/>
</g></g><g transform="translate(224,119) scale(0.014,0.014)"><g transform="" style="fill: rgb(48, 191, 57);">
<path d="M250,0c138.077,0,250,111.93,250,250c0,138.077-111.923,250-250,250C111.93,500,0,388.077,0,250C0,111.93,111.93,0,250,0z"
	/>
</g></g><g transform="translate(0,126) scale(0.014,0.014)"><g transform="" style="fill: rgb(48, 191, 57);">
<path d="M250,0c138.077,0,250,111.93,250,250c0,138.077-111.923,250-250,250C111.93,500,0,388.077,0,250C0,111.93,111.93,0,250,0z"
	/>
</g></g><g transform="translate(14,126) scale(0.014,0.014)"><g transform="" style="fill: rgb(48, 191, 57);">
<path d="M250,0c138.077,0,250,111.93,250,250c0,138.077-111.923,250-250,250C111.93,500,0,388.077,0,250C0,111.93,111.93,0,250,0z"
	/>
</g></g><g transform="translate(28,126) scale(0.014,0.014)"><g transform="" style="fill: rgb(48, 191, 57);">
<path d="M250,0c138.077,0,250,111.93,250,250c0,138.077-111.923,250-250,250C111.93,500,0,388.077,0,250C0,111.93,111.93,0,250,0z"
	/>
</g></g><g transform="translate(35,126) scale(0.014,0.014)"><g transform="" style="fill: rgb(48, 191, 57);">
<path d="M250,0c138.077,0,250,111.93,250,250c0,138.077-111.923,250-250,250C111.93,500,0,388.077,0,250C0,111.93,111.93,0,250,0z"
	/>
</g></g><g transform="translate(42,126) scale(0.014,0.014)"><g transform="" style="fill: rgb(48, 191, 57);">
<path d="M250,0c138.077,0,250,111.93,250,250c0,138.077-111.923,250-250,250C111.93,500,0,388.077,0,250C0,111.93,111.93,0,250,0z"
	/>
</g></g><g transform="translate(63,126) scale(0.014,0.014)"><g transform="" style="fill: rgb(48, 191, 57);">
<path d="M250,0c138.077,0,250,111.93,250,250c0,138.077-111.923,250-250,250C111.93,500,0,388.077,0,250C0,111.93,111.93,0,250,0z"
	/>
</g></g><g transform="translate(70,126) scale(0.014,0.014)"><g transform="" style="fill: rgb(48, 191, 57);">
<path d="M250,0c138.077,0,250,111.93,250,250c0,138.077-111.923,250-250,250C111.93,500,0,388.077,0,250C0,111.93,111.93,0,250,0z"
	/>
</g></g><g transform="translate(154,126) scale(0.014,0.014)"><g transform="" style="fill: rgb(48, 191, 57);">
<path d="M250,0c138.077,0,250,111.93,250,250c0,138.077-111.923,250-250,250C111.93,500,0,388.077,0,250C0,111.93,111.93,0,250,0z"
	/>
</g></g><g transform="translate(175,126) scale(0.014,0.014)"><g transform="" style="fill: rgb(48, 191, 57);">
<path d="M250,0c138.077,0,250,111.93,250,250c0,138.077-111.923,250-250,250C111.93,500,0,388.077,0,250C0,111.93,111.93,0,250,0z"
	/>
</g></g><g transform="translate(182,126) scale(0.014,0.014)"><g transform="" style="fill: rgb(48, 191, 57);">
<path d="M250,0c138.077,0,250,111.93,250,250c0,138.077-111.923,250-250,250C111.93,500,0,388.077,0,250C0,111.93,111.93,0,250,0z"
	/>
</g></g><g transform="translate(210,126) scale(0.014,0.014)"><g transform="" style="fill: rgb(48, 191, 57);">
<path d="M250,0c138.077,0,250,111.93,250,250c0,138.077-111.923,250-250,250C111.93,500,0,388.077,0,250C0,111.93,111.93,0,250,0z"
	/>
</g></g><g transform="translate(0,133) scale(0.014,0.014)"><g transform="" style="fill: rgb(48, 191, 57);">
<path d="M250,0c138.077,0,250,111.93,250,250c0,138.077-111.923,250-250,250C111.93,500,0,388.077,0,250C0,111.93,111.93,0,250,0z"
	/>
</g></g><g transform="translate(14,133) scale(0.014,0.014)"><g transform="" style="fill: rgb(48, 191, 57);">
<path d="M250,0c138.077,0,250,111.93,250,250c0,138.077-111.923,250-250,250C111.93,500,0,388.077,0,250C0,111.93,111.93,0,250,0z"
	/>
</g></g><g transform="translate(49,133) scale(0.014,0.014)"><g transform="" style="fill: rgb(48, 191, 57);">
<path d="M250,0c138.077,0,250,111.93,250,250c0,138.077-111.923,250-250,250C111.93,500,0,388.077,0,250C0,111.93,111.93,0,250,0z"
	/>
</g></g><g transform="translate(63,133) scale(0.014,0.014)"><g transform="" style="fill: rgb(48, 191, 57);">
<path d="M250,0c138.077,0,250,111.93,250,250c0,138.077-111.923,250-250,250C111.93,500,0,388.077,0,250C0,111.93,111.93,0,250,0z"
	/>
</g></g><g transform="translate(224,133) scale(0.014,0.014)"><g transform="" style="fill: rgb(48, 191, 57);">
<path d="M250,0c138.077,0,250,111.93,250,250c0,138.077-111.923,250-250,250C111.93,500,0,388.077,0,250C0,111.93,111.93,0,250,0z"
	/>
</g></g><g transform="translate(0,140) scale(0.014,0.014)"><g transform="" style="fill: rgb(48, 191, 57);">
<path d="M250,0c138.077,0,250,111.93,250,250c0,138.077-111.923,250-250,250C111.93,500,0,388.077,0,250C0,111.93,111.93,0,250,0z"
	/>
</g></g><g transform="translate(14,140) scale(0.014,0.014)"><g transform="" style="fill: rgb(48, 191, 57);">
<path d="M250,0c138.077,0,250,111.93,250,250c0,138.077-111.923,250-250,250C111.93,500,0,388.077,0,250C0,111.93,111.93,0,250,0z"
	/>
</g></g><g transform="translate(42,140) scale(0.014,0.014)"><g transform="" style="fill: rgb(48, 191, 57);">
<path d="M250,0c138.077,0,250,111.93,250,250c0,138.077-111.923,250-250,250C111.93,500,0,388.077,0,250C0,111.93,111.93,0,250,0z"
	/>
</g></g><g transform="translate(56,140) scale(0.014,0.014)"><g transform="" style="fill: rgb(48, 191, 57);">
<path d="M250,0c138.077,0,250,111.93,250,250c0,138.077-111.923,250-250,250C111.93,500,0,388.077,0,250C0,111.93,111.93,0,250,0z"
	/>
</g></g><g transform="translate(63,140) scale(0.014,0.014)"><g transform="" style="fill: rgb(48, 191, 57);">
<path d="M250,0c138.077,0,250,111.93,250,250c0,138.077-111.923,250-250,250C111.93,500,0,388.077,0,250C0,111.93,111.93,0,250,0z"
	/>
</g></g><g transform="translate(154,140) scale(0.014,0.014)"><g transform="" style="fill: rgb(48, 191, 57);">
<path d="M250,0c138.077,0,250,111.93,250,250c0,138.077-111.923,250-250,250C111.93,500,0,388.077,0,250C0,111.93,111.93,0,250,0z"
	/>
</g></g><g transform="translate(168,140) scale(0.014,0.014)"><g transform="" style="fill: rgb(48, 191, 57);">
<path d="M250,0c138.077,0,250,111.93,250,250c0,138.077-111.923,250-250,250C111.93,500,0,388.077,0,250C0,111.93,111.93,0,250,0z"
	/>
</g></g><g transform="translate(182,140) scale(0.014,0.014)"><g transform="" style="fill: rgb(48, 191, 57);">
<path d="M250,0c138.077,0,250,111.93,250,250c0,138.077-111.923,250-250,250C111.93,500,0,388.077,0,250C0,111.93,111.93,0,250,0z"
	/>
</g></g><g transform="translate(203,140) scale(0.014,0.014)"><g transform="" style="fill: rgb(48, 191, 57);">
<path d="M250,0c138.077,0,250,111.93,250,250c0,138.077-111.923,250-250,250C111.93,500,0,388.077,0,250C0,111.93,111.93,0,250,0z"
	/>
</g></g><g transform="translate(210,140) scale(0.014,0.014)"><g transform="" style="fill: rgb(48, 191, 57);">
<path d="M250,0c138.077,0,250,111.93,250,250c0,138.077-111.923,250-250,250C111.93,500,0,388.077,0,250C0,111.93,111.93,0,250,0z"
	/>
</g></g><g transform="translate(217,140) scale(0.014,0.014)"><g transform="" style="fill: rgb(48, 191, 57);">
<path d="M250,0c138.077,0,250,111.93,250,250c0,138.077-111.923,250-250,250C111.93,500,0,388.077,0,250C0,111.93,111.93,0,250,0z"
	/>
</g></g><g transform="translate(224,140) scale(0.014,0.014)"><g transform="" style="fill: rgb(48, 191, 57);">
<path d="M250,0c138.077,0,250,111.93,250,250c0,138.077-111.923,250-250,250C111.93,500,0,388.077,0,250C0,111.93,111.93,0,250,0z"
	/>
</g></g><g transform="translate(0,147) scale(0.014,0.014)"><g transform="" style="fill: rgb(48, 191, 57);">
<path d="M250,0c138.077,0,250,111.93,250,250c0,138.077-111.923,250-250,250C111.93,500,0,388.077,0,250C0,111.93,111.93,0,250,0z"
	/>
</g></g><g transform="translate(7,147) scale(0.014,0.014)"><g transform="" style="fill: rgb(48, 191, 57);">
<path d="M250,0c138.077,0,250,111.93,250,250c0,138.077-111.923,250-250,250C111.93,500,0,388.077,0,250C0,111.93,111.93,0,250,0z"
	/>
</g></g><g transform="translate(14,147) scale(0.014,0.014)"><g transform="" style="fill: rgb(48, 191, 57);">
<path d="M250,0c138.077,0,250,111.93,250,250c0,138.077-111.923,250-250,250C111.93,500,0,388.077,0,250C0,111.93,111.93,0,250,0z"
	/>
</g></g><g transform="translate(21,147) scale(0.014,0.014)"><g transform="" style="fill: rgb(48, 191, 57);">
<path d="M250,0c138.077,0,250,111.93,250,250c0,138.077-111.923,250-250,250C111.93,500,0,388.077,0,250C0,111.93,111.93,0,250,0z"
	/>
</g></g><g transform="translate(28,147) scale(0.014,0.014)"><g transform="" style="fill: rgb(48, 191, 57);">
<path d="M250,0c138.077,0,250,111.93,250,250c0,138.077-111.923,250-250,250C111.93,500,0,388.077,0,250C0,111.93,111.93,0,250,0z"
	/>
</g></g><g transform="translate(35,147) scale(0.014,0.014)"><g transform="" style="fill: rgb(48, 191, 57);">
<path d="M250,0c138.077,0,250,111.93,250,250c0,138.077-111.923,250-250,250C111.93,500,0,388.077,0,250C0,111.93,111.93,0,250,0z"
	/>
</g></g><g transform="translate(49,147) scale(0.014,0.014)"><g transform="" style="fill: rgb(48, 191, 57);">
<path d="M250,0c138.077,0,250,111.93,250,250c0,138.077-111.923,250-250,250C111.93,500,0,388.077,0,250C0,111.93,111.93,0,250,0z"
	/>
</g></g><g transform="translate(56,147) scale(0.014,0.014)"><g transform="" style="fill: rgb(48, 191, 57);">
<path d="M250,0c138.077,0,250,111.93,250,250c0,138.077-111.923,250-250,250C111.93,500,0,388.077,0,250C0,111.93,111.93,0,250,0z"
	/>
</g></g><g transform="translate(70,147) scale(0.014,0.014)"><g transform="" style="fill: rgb(48, 191, 57);">
<path d="M250,0c138.077,0,250,111.93,250,250c0,138.077-111.923,250-250,250C111.93,500,0,388.077,0,250C0,111.93,111.93,0,250,0z"
	/>
</g></g><g transform="translate(154,147) scale(0.014,0.014)"><g transform="" style="fill: rgb(48, 191, 57);">
<path d="M250,0c138.077,0,250,111.93,250,250c0,138.077-111.923,250-250,250C111.93,500,0,388.077,0,250C0,111.93,111.93,0,250,0z"
	/>
</g></g><g transform="translate(168,147) scale(0.014,0.014)"><g transform="" style="fill: rgb(48, 191, 57);">
<path d="M250,0c138.077,0,250,111.93,250,250c0,138.077-111.923,250-250,250C111.93,500,0,388.077,0,250C0,111.93,111.93,0,250,0z"
	/>
</g></g><g transform="translate(210,147) scale(0.014,0.014)"><g transform="" style="fill: rgb(48, 191, 57);">
<path d="M250,0c138.077,0,250,111.93,250,250c0,138.077-111.923,250-250,250C111.93,500,0,388.077,0,250C0,111.93,111.93,0,250,0z"
	/>
</g></g><g transform="translate(217,147) scale(0.014,0.014)"><g transform="" style="fill: rgb(48, 191, 57);">
<path d="M250,0c138.077,0,250,111.93,250,250c0,138.077-111.923,250-250,250C111.93,500,0,388.077,0,250C0,111.93,111.93,0,250,0z"
	/>
</g></g><g transform="translate(224,147) scale(0.014,0.014)"><g transform="" style="fill: rgb(48, 191, 57);">
<path d="M250,0c138.077,0,250,111.93,250,250c0,138.077-111.923,250-250,250C111.93,500,0,388.077,0,250C0,111.93,111.93,0,250,0z"
	/>
</g></g><g transform="translate(14,154) scale(0.014,0.014)"><g transform="" style="fill: rgb(48, 191, 57);">
<path d="M250,0c138.077,0,250,111.93,250,250c0,138.077-111.923,250-250,250C111.93,500,0,388.077,0,250C0,111.93,111.93,0,250,0z"
	/>
</g></g><g transform="translate(35,154) scale(0.014,0.014)"><g transform="" style="fill: rgb(48, 191, 57);">
<path d="M250,0c138.077,0,250,111.93,250,250c0,138.077-111.923,250-250,250C111.93,500,0,388.077,0,250C0,111.93,111.93,0,250,0z"
	/>
</g></g><g transform="translate(42,154) scale(0.014,0.014)"><g transform="" style="fill: rgb(48, 191, 57);">
<path d="M250,0c138.077,0,250,111.93,250,250c0,138.077-111.923,250-250,250C111.93,500,0,388.077,0,250C0,111.93,111.93,0,250,0z"
	/>
</g></g><g transform="translate(63,154) scale(0.014,0.014)"><g transform="" style="fill: rgb(48, 191, 57);">
<path d="M250,0c138.077,0,250,111.93,250,250c0,138.077-111.923,250-250,250C111.93,500,0,388.077,0,250C0,111.93,111.93,0,250,0z"
	/>
</g></g><g transform="translate(70,154) scale(0.014,0.014)"><g transform="" style="fill: rgb(48, 191, 57);">
<path d="M250,0c138.077,0,250,111.93,250,250c0,138.077-111.923,250-250,250C111.93,500,0,388.077,0,250C0,111.93,111.93,0,250,0z"
	/>
</g></g><g transform="translate(84,154) scale(0.014,0.014)"><g transform="" style="fill: rgb(48, 191, 57);">
<path d="M250,0c138.077,0,250,111.93,250,250c0,138.077-111.923,250-250,250C111.93,500,0,388.077,0,250C0,111.93,111.93,0,250,0z"
	/>
</g></g><g transform="translate(91,154) scale(0.014,0.014)"><g transform="" style="fill: rgb(48, 191, 57);">
<path d="M250,0c138.077,0,250,111.93,250,250c0,138.077-111.923,250-250,250C111.93,500,0,388.077,0,250C0,111.93,111.93,0,250,0z"
	/>
</g></g><g transform="translate(98,154) scale(0.014,0.014)"><g transform="" style="fill: rgb(48, 191, 57);">
<path d="M250,0c138.077,0,250,111.93,250,250c0,138.077-111.923,250-250,250C111.93,500,0,388.077,0,250C0,111.93,111.93,0,250,0z"
	/>
</g></g><g transform="translate(119,154) scale(0.014,0.014)"><g transform="" style="fill: rgb(48, 191, 57);">
<path d="M250,0c138.077,0,250,111.93,250,250c0,138.077-111.923,250-250,250C111.93,500,0,388.077,0,250C0,111.93,111.93,0,250,0z"
	/>
</g></g><g transform="translate(126,154) scale(0.014,0.014)"><g transform="" style="fill: rgb(48, 191, 57);">
<path d="M250,0c138.077,0,250,111.93,250,250c0,138.077-111.923,250-250,250C111.93,500,0,388.077,0,250C0,111.93,111.93,0,250,0z"
	/>
</g></g><g transform="translate(133,154) scale(0.014,0.014)"><g transform="" style="fill: rgb(48, 191, 57);">
<path d="M250,0c138.077,0,250,111.93,250,250c0,138.077-111.923,250-250,250C111.93,500,0,388.077,0,250C0,111.93,111.93,0,250,0z"
	/>
</g></g><g transform="translate(147,154) scale(0.014,0.014)"><g transform="" style="fill: rgb(48, 191, 57);">
<path d="M250,0c138.077,0,250,111.93,250,250c0,138.077-111.923,250-250,250C111.93,500,0,388.077,0,250C0,111.93,111.93,0,250,0z"
	/>
</g></g><g transform="translate(154,154) scale(0.014,0.014)"><g transform="" style="fill: rgb(48, 191, 57);">
<path d="M250,0c138.077,0,250,111.93,250,250c0,138.077-111.923,250-250,250C111.93,500,0,388.077,0,250C0,111.93,111.93,0,250,0z"
	/>
</g></g><g transform="translate(161,154) scale(0.014,0.014)"><g transform="" style="fill: rgb(48, 191, 57);">
<path d="M250,0c138.077,0,250,111.93,250,250c0,138.077-111.923,250-250,250C111.93,500,0,388.077,0,250C0,111.93,111.93,0,250,0z"
	/>
</g></g><g transform="translate(168,154) scale(0.014,0.014)"><g transform="" style="fill: rgb(48, 191, 57);">
<path d="M250,0c138.077,0,250,111.93,250,250c0,138.077-111.923,250-250,250C111.93,500,0,388.077,0,250C0,111.93,111.93,0,250,0z"
	/>
</g></g><g transform="translate(182,154) scale(0.014,0.014)"><g transform="" style="fill: rgb(48, 191, 57);">
<path d="M250,0c138.077,0,250,111.93,250,250c0,138.077-111.923,250-250,250C111.93,500,0,388.077,0,250C0,111.93,111.93,0,250,0z"
	/>
</g></g><g transform="translate(196,154) scale(0.014,0.014)"><g transform="" style="fill: rgb(48, 191, 57);">
<path d="M250,0c138.077,0,250,111.93,250,250c0,138.077-111.923,250-250,250C111.93,500,0,388.077,0,250C0,111.93,111.93,0,250,0z"
	/>
</g></g><g transform="translate(224,154) scale(0.014,0.014)"><g transform="" style="fill: rgb(48, 191, 57);">
<path d="M250,0c138.077,0,250,111.93,250,250c0,138.077-111.923,250-250,250C111.93,500,0,388.077,0,250C0,111.93,111.93,0,250,0z"
	/>
</g></g><g transform="translate(7,161) scale(0.014,0.014)"><g transform="" style="fill: rgb(48, 191, 57);">
<path d="M250,0c138.077,0,250,111.93,250,250c0,138.077-111.923,250-250,250C111.93,500,0,388.077,0,250C0,111.93,111.93,0,250,0z"
	/>
</g></g><g transform="translate(14,161) scale(0.014,0.014)"><g transform="" style="fill: rgb(48, 191, 57);">
<path d="M250,0c138.077,0,250,111.93,250,250c0,138.077-111.923,250-250,250C111.93,500,0,388.077,0,250C0,111.93,111.93,0,250,0z"
	/>
</g></g><g transform="translate(21,161) scale(0.014,0.014)"><g transform="" style="fill: rgb(48, 191, 57);">
<path d="M250,0c138.077,0,250,111.93,250,250c0,138.077-111.923,250-250,250C111.93,500,0,388.077,0,250C0,111.93,111.93,0,250,0z"
	/>
</g></g><g transform="translate(28,161) scale(0.014,0.014)"><g transform="" style="fill: rgb(48, 191, 57);">
<path d="M250,0c138.077,0,250,111.93,250,250c0,138.077-111.923,250-250,250C111.93,500,0,388.077,0,250C0,111.93,111.93,0,250,0z"
	/>
</g></g><g transform="translate(35,161) scale(0.014,0.014)"><g transform="" style="fill: rgb(48, 191, 57);">
<path d="M250,0c138.077,0,250,111.93,250,250c0,138.077-111.923,250-250,250C111.93,500,0,388.077,0,250C0,111.93,111.93,0,250,0z"
	/>
</g></g><g transform="translate(49,161) scale(0.014,0.014)"><g transform="" style="fill: rgb(48, 191, 57);">
<path d="M250,0c138.077,0,250,111.93,250,250c0,138.077-111.923,250-250,250C111.93,500,0,388.077,0,250C0,111.93,111.93,0,250,0z"
	/>
</g></g><g transform="translate(56,161) scale(0.014,0.014)"><g transform="" style="fill: rgb(48, 191, 57);">
<path d="M250,0c138.077,0,250,111.93,250,250c0,138.077-111.923,250-250,250C111.93,500,0,388.077,0,250C0,111.93,111.93,0,250,0z"
	/>
</g></g><g transform="translate(70,161) scale(0.014,0.014)"><g transform="" style="fill: rgb(48, 191, 57);">
<path d="M250,0c138.077,0,250,111.93,250,250c0,138.077-111.923,250-250,250C111.93,500,0,388.077,0,250C0,111.93,111.93,0,250,0z"
	/>
</g></g><g transform="translate(77,161) scale(0.014,0.014)"><g transform="" style="fill: rgb(48, 191, 57);">
<path d="M250,0c138.077,0,250,111.93,250,250c0,138.077-111.923,250-250,250C111.93,500,0,388.077,0,250C0,111.93,111.93,0,250,0z"
	/>
</g></g><g transform="translate(91,161) scale(0.014,0.014)"><g transform="" style="fill: rgb(48, 191, 57);">
<path d="M250,0c138.077,0,250,111.93,250,250c0,138.077-111.923,250-250,250C111.93,500,0,388.077,0,250C0,111.93,111.93,0,250,0z"
	/>
</g></g><g transform="translate(105,161) scale(0.014,0.014)"><g transform="" style="fill: rgb(48, 191, 57);">
<path d="M250,0c138.077,0,250,111.93,250,250c0,138.077-111.923,250-250,250C111.93,500,0,388.077,0,250C0,111.93,111.93,0,250,0z"
	/>
</g></g><g transform="translate(112,161) scale(0.014,0.014)"><g transform="" style="fill: rgb(48, 191, 57);">
<path d="M250,0c138.077,0,250,111.93,250,250c0,138.077-111.923,250-250,250C111.93,500,0,388.077,0,250C0,111.93,111.93,0,250,0z"
	/>
</g></g><g transform="translate(133,161) scale(0.014,0.014)"><g transform="" style="fill: rgb(48, 191, 57);">
<path d="M250,0c138.077,0,250,111.93,250,250c0,138.077-111.923,250-250,250C111.93,500,0,388.077,0,250C0,111.93,111.93,0,250,0z"
	/>
</g></g><g transform="translate(140,161) scale(0.014,0.014)"><g transform="" style="fill: rgb(48, 191, 57);">
<path d="M250,0c138.077,0,250,111.93,250,250c0,138.077-111.923,250-250,250C111.93,500,0,388.077,0,250C0,111.93,111.93,0,250,0z"
	/>
</g></g><g transform="translate(154,161) scale(0.014,0.014)"><g transform="" style="fill: rgb(48, 191, 57);">
<path d="M250,0c138.077,0,250,111.93,250,250c0,138.077-111.923,250-250,250C111.93,500,0,388.077,0,250C0,111.93,111.93,0,250,0z"
	/>
</g></g><g transform="translate(175,161) scale(0.014,0.014)"><g transform="" style="fill: rgb(48, 191, 57);">
<path d="M250,0c138.077,0,250,111.93,250,250c0,138.077-111.923,250-250,250C111.93,500,0,388.077,0,250C0,111.93,111.93,0,250,0z"
	/>
</g></g><g transform="translate(189,161) scale(0.014,0.014)"><g transform="" style="fill: rgb(48, 191, 57);">
<path d="M250,0c138.077,0,250,111.93,250,250c0,138.077-111.923,250-250,250C111.93,500,0,388.077,0,250C0,111.93,111.93,0,250,0z"
	/>
</g></g><g transform="translate(0,168) scale(0.014,0.014)"><g transform="" style="fill: rgb(48, 191, 57);">
<path d="M250,0c138.077,0,250,111.93,250,250c0,138.077-111.923,250-250,250C111.93,500,0,388.077,0,250C0,111.93,111.93,0,250,0z"
	/>
</g></g><g transform="translate(14,168) scale(0.014,0.014)"><g transform="" style="fill: rgb(48, 191, 57);">
<path d="M250,0c138.077,0,250,111.93,250,250c0,138.077-111.923,250-250,250C111.93,500,0,388.077,0,250C0,111.93,111.93,0,250,0z"
	/>
</g></g><g transform="translate(28,168) scale(0.014,0.014)"><g transform="" style="fill: rgb(48, 191, 57);">
<path d="M250,0c138.077,0,250,111.93,250,250c0,138.077-111.923,250-250,250C111.93,500,0,388.077,0,250C0,111.93,111.93,0,250,0z"
	/>
</g></g><g transform="translate(42,168) scale(0.014,0.014)"><g transform="" style="fill: rgb(48, 191, 57);">
<path d="M250,0c138.077,0,250,111.93,250,250c0,138.077-111.923,250-250,250C111.93,500,0,388.077,0,250C0,111.93,111.93,0,250,0z"
	/>
</g></g><g transform="translate(63,168) scale(0.014,0.014)"><g transform="" style="fill: rgb(48, 191, 57);">
<path d="M250,0c138.077,0,250,111.93,250,250c0,138.077-111.923,250-250,250C111.93,500,0,388.077,0,250C0,111.93,111.93,0,250,0z"
	/>
</g></g><g transform="translate(70,168) scale(0.014,0.014)"><g transform="" style="fill: rgb(48, 191, 57);">
<path d="M250,0c138.077,0,250,111.93,250,250c0,138.077-111.923,250-250,250C111.93,500,0,388.077,0,250C0,111.93,111.93,0,250,0z"
	/>
</g></g><g transform="translate(77,168) scale(0.014,0.014)"><g transform="" style="fill: rgb(48, 191, 57);">
<path d="M250,0c138.077,0,250,111.93,250,250c0,138.077-111.923,250-250,250C111.93,500,0,388.077,0,250C0,111.93,111.93,0,250,0z"
	/>
</g></g><g transform="translate(91,168) scale(0.014,0.014)"><g transform="" style="fill: rgb(48, 191, 57);">
<path d="M250,0c138.077,0,250,111.93,250,250c0,138.077-111.923,250-250,250C111.93,500,0,388.077,0,250C0,111.93,111.93,0,250,0z"
	/>
</g></g><g transform="translate(105,168) scale(0.014,0.014)"><g transform="" style="fill: rgb(48, 191, 57);">
<path d="M250,0c138.077,0,250,111.93,250,250c0,138.077-111.923,250-250,250C111.93,500,0,388.077,0,250C0,111.93,111.93,0,250,0z"
	/>
</g></g><g transform="translate(112,168) scale(0.014,0.014)"><g transform="" style="fill: rgb(48, 191, 57);">
<path d="M250,0c138.077,0,250,111.93,250,250c0,138.077-111.923,250-250,250C111.93,500,0,388.077,0,250C0,111.93,111.93,0,250,0z"
	/>
</g></g><g transform="translate(119,168) scale(0.014,0.014)"><g transform="" style="fill: rgb(48, 191, 57);">
<path d="M250,0c138.077,0,250,111.93,250,250c0,138.077-111.923,250-250,250C111.93,500,0,388.077,0,250C0,111.93,111.93,0,250,0z"
	/>
</g></g><g transform="translate(126,168) scale(0.014,0.014)"><g transform="" style="fill: rgb(48, 191, 57);">
<path d="M250,0c138.077,0,250,111.93,250,250c0,138.077-111.923,250-250,250C111.93,500,0,388.077,0,250C0,111.93,111.93,0,250,0z"
	/>
</g></g><g transform="translate(140,168) scale(0.014,0.014)"><g transform="" style="fill: rgb(48, 191, 57);">
<path d="M250,0c138.077,0,250,111.93,250,250c0,138.077-111.923,250-250,250C111.93,500,0,388.077,0,250C0,111.93,111.93,0,250,0z"
	/>
</g></g><g transform="translate(168,168) scale(0.014,0.014)"><g transform="" style="fill: rgb(48, 191, 57);">
<path d="M250,0c138.077,0,250,111.93,250,250c0,138.077-111.923,250-250,250C111.93,500,0,388.077,0,250C0,111.93,111.93,0,250,0z"
	/>
</g></g><g transform="translate(175,168) scale(0.014,0.014)"><g transform="" style="fill: rgb(48, 191, 57);">
<path d="M250,0c138.077,0,250,111.93,250,250c0,138.077-111.923,250-250,250C111.93,500,0,388.077,0,250C0,111.93,111.93,0,250,0z"
	/>
</g></g><g transform="translate(182,168) scale(0.014,0.014)"><g transform="" style="fill: rgb(48, 191, 57);">
<path d="M250,0c138.077,0,250,111.93,250,250c0,138.077-111.923,250-250,250C111.93,500,0,388.077,0,250C0,111.93,111.93,0,250,0z"
	/>
</g></g><g transform="translate(189,168) scale(0.014,0.014)"><g transform="" style="fill: rgb(48, 191, 57);">
<path d="M250,0c138.077,0,250,111.93,250,250c0,138.077-111.923,250-250,250C111.93,500,0,388.077,0,250C0,111.93,111.93,0,250,0z"
	/>
</g></g><g transform="translate(196,168) scale(0.014,0.014)"><g transform="" style="fill: rgb(48, 191, 57);">
<path d="M250,0c138.077,0,250,111.93,250,250c0,138.077-111.923,250-250,250C111.93,500,0,388.077,0,250C0,111.93,111.93,0,250,0z"
	/>
</g></g><g transform="translate(56,175) scale(0.014,0.014)"><g transform="" style="fill: rgb(48, 191, 57);">
<path d="M250,0c138.077,0,250,111.93,250,250c0,138.077-111.923,250-250,250C111.93,500,0,388.077,0,250C0,111.93,111.93,0,250,0z"
	/>
</g></g><g transform="translate(63,175) scale(0.014,0.014)"><g transform="" style="fill: rgb(48, 191, 57);">
<path d="M250,0c138.077,0,250,111.93,250,250c0,138.077-111.923,250-250,250C111.93,500,0,388.077,0,250C0,111.93,111.93,0,250,0z"
	/>
</g></g><g transform="translate(70,175) scale(0.014,0.014)"><g transform="" style="fill: rgb(48, 191, 57);">
<path d="M250,0c138.077,0,250,111.93,250,250c0,138.077-111.923,250-250,250C111.93,500,0,388.077,0,250C0,111.93,111.93,0,250,0z"
	/>
</g></g><g transform="translate(91,175) scale(0.014,0.014)"><g transform="" style="fill: rgb(48, 191, 57);">
<path d="M250,0c138.077,0,250,111.93,250,250c0,138.077-111.923,250-250,250C111.93,500,0,388.077,0,250C0,111.93,111.93,0,250,0z"
	/>
</g></g><g transform="translate(112,175) scale(0.014,0.014)"><g transform="" style="fill: rgb(48, 191, 57);">
<path d="M250,0c138.077,0,250,111.93,250,250c0,138.077-111.923,250-250,250C111.93,500,0,388.077,0,250C0,111.93,111.93,0,250,0z"
	/>
</g></g><g transform="translate(119,175) scale(0.014,0.014)"><g transform="" style="fill: rgb(48, 191, 57);">
<path d="M250,0c138.077,0,250,111.93,250,250c0,138.077-111.923,250-250,250C111.93,500,0,388.077,0,250C0,111.93,111.93,0,250,0z"
	/>
</g></g><g transform="translate(126,175) scale(0.014,0.014)"><g transform="" style="fill: rgb(48, 191, 57);">
<path d="M250,0c138.077,0,250,111.93,250,250c0,138.077-111.923,250-250,250C111.93,500,0,388.077,0,250C0,111.93,111.93,0,250,0z"
	/>
</g></g><g transform="translate(133,175) scale(0.014,0.014)"><g transform="" style="fill: rgb(48, 191, 57);">
<path d="M250,0c138.077,0,250,111.93,250,250c0,138.077-111.923,250-250,250C111.93,500,0,388.077,0,250C0,111.93,111.93,0,250,0z"
	/>
</g></g><g transform="translate(140,175) scale(0.014,0.014)"><g transform="" style="fill: rgb(48, 191, 57);">
<path d="M250,0c138.077,0,250,111.93,250,250c0,138.077-111.923,250-250,250C111.93,500,0,388.077,0,250C0,111.93,111.93,0,250,0z"
	/>
</g></g><g transform="translate(147,175) scale(0.014,0.014)"><g transform="" style="fill: rgb(48, 191, 57);">
<path d="M250,0c138.077,0,250,111.93,250,250c0,138.077-111.923,250-250,250C111.93,500,0,388.077,0,250C0,111.93,111.93,0,250,0z"
	/>
</g></g><g transform="translate(154,175) scale(0.014,0.014)"><g transform="" style="fill: rgb(48, 191, 57);">
<path d="M250,0c138.077,0,250,111.93,250,250c0,138.077-111.923,250-250,250C111.93,500,0,388.077,0,250C0,111.93,111.93,0,250,0z"
	/>
</g></g><g transform="translate(168,175) scale(0.014,0.014)"><g transform="" style="fill: rgb(48, 191, 57);">
<path d="M250,0c138.077,0,250,111.93,250,250c0,138.077-111.923,250-250,250C111.93,500,0,388.077,0,250C0,111.93,111.93,0,250,0z"
	/>
</g></g><g transform="translate(196,175) scale(0.014,0.014)"><g transform="" style="fill: rgb(48, 191, 57);">
<path d="M250,0c138.077,0,250,111.93,250,250c0,138.077-111.923,250-250,250C111.93,500,0,388.077,0,250C0,111.93,111.93,0,250,0z"
	/>
</g></g><g transform="translate(203,175) scale(0.014,0.014)"><g transform="" style="fill: rgb(48, 191, 57);">
<path d="M250,0c138.077,0,250,111.93,250,250c0,138.077-111.923,250-250,250C111.93,500,0,388.077,0,250C0,111.93,111.93,0,250,0z"
	/>
</g></g><g transform="translate(217,175) scale(0.014,0.014)"><g transform="" style="fill: rgb(48, 191, 57);">
<path d="M250,0c138.077,0,250,111.93,250,250c0,138.077-111.923,250-250,250C111.93,500,0,388.077,0,250C0,111.93,111.93,0,250,0z"
	/>
</g></g><g transform="translate(56,182) scale(0.014,0.014)"><g transform="" style="fill: rgb(48, 191, 57);">
<path d="M250,0c138.077,0,250,111.93,250,250c0,138.077-111.923,250-250,250C111.93,500,0,388.077,0,250C0,111.93,111.93,0,250,0z"
	/>
</g></g><g transform="translate(63,182) scale(0.014,0.014)"><g transform="" style="fill: rgb(48, 191, 57);">
<path d="M250,0c138.077,0,250,111.93,250,250c0,138.077-111.923,250-250,250C111.93,500,0,388.077,0,250C0,111.93,111.93,0,250,0z"
	/>
</g></g><g transform="translate(91,182) scale(0.014,0.014)"><g transform="" style="fill: rgb(48, 191, 57);">
<path d="M250,0c138.077,0,250,111.93,250,250c0,138.077-111.923,250-250,250C111.93,500,0,388.077,0,250C0,111.93,111.93,0,250,0z"
	/>
</g></g><g transform="translate(98,182) scale(0.014,0.014)"><g transform="" style="fill: rgb(48, 191, 57);">
<path d="M250,0c138.077,0,250,111.93,250,250c0,138.077-111.923,250-250,250C111.93,500,0,388.077,0,250C0,111.93,111.93,0,250,0z"
	/>
</g></g><g transform="translate(105,182) scale(0.014,0.014)"><g transform="" style="fill: rgb(48, 191, 57);">
<path d="M250,0c138.077,0,250,111.93,250,250c0,138.077-111.923,250-250,250C111.93,500,0,388.077,0,250C0,111.93,111.93,0,250,0z"
	/>
</g></g><g transform="translate(140,182) scale(0.014,0.014)"><g transform="" style="fill: rgb(48, 191, 57);">
<path d="M250,0c138.077,0,250,111.93,250,250c0,138.077-111.923,250-250,250C111.93,500,0,388.077,0,250C0,111.93,111.93,0,250,0z"
	/>
</g></g><g transform="translate(147,182) scale(0.014,0.014)"><g transform="" style="fill: rgb(48, 191, 57);">
<path d="M250,0c138.077,0,250,111.93,250,250c0,138.077-111.923,250-250,250C111.93,500,0,388.077,0,250C0,111.93,111.93,0,250,0z"
	/>
</g></g><g transform="translate(161,182) scale(0.014,0.014)"><g transform="" style="fill: rgb(48, 191, 57);">
<path d="M250,0c138.077,0,250,111.93,250,250c0,138.077-111.923,250-250,250C111.93,500,0,388.077,0,250C0,111.93,111.93,0,250,0z"
	/>
</g></g><g transform="translate(168,182) scale(0.014,0.014)"><g transform="" style="fill: rgb(48, 191, 57);">
<path d="M250,0c138.077,0,250,111.93,250,250c0,138.077-111.923,250-250,250C111.93,500,0,388.077,0,250C0,111.93,111.93,0,250,0z"
	/>
</g></g><g transform="translate(182,182) scale(0.014,0.014)"><g transform="" style="fill: rgb(48, 191, 57);">
<path d="M250,0c138.077,0,250,111.93,250,250c0,138.077-111.923,250-250,250C111.93,500,0,388.077,0,250C0,111.93,111.93,0,250,0z"
	/>
</g></g><g transform="translate(196,182) scale(0.014,0.014)"><g transform="" style="fill: rgb(48, 191, 57);">
<path d="M250,0c138.077,0,250,111.93,250,250c0,138.077-111.923,250-250,250C111.93,500,0,388.077,0,250C0,111.93,111.93,0,250,0z"
	/>
</g></g><g transform="translate(203,182) scale(0.014,0.014)"><g transform="" style="fill: rgb(48, 191, 57);">
<path d="M250,0c138.077,0,250,111.93,250,250c0,138.077-111.923,250-250,250C111.93,500,0,388.077,0,250C0,111.93,111.93,0,250,0z"
	/>
</g></g><g transform="translate(210,182) scale(0.014,0.014)"><g transform="" style="fill: rgb(48, 191, 57);">
<path d="M250,0c138.077,0,250,111.93,250,250c0,138.077-111.923,250-250,250C111.93,500,0,388.077,0,250C0,111.93,111.93,0,250,0z"
	/>
</g></g><g transform="translate(70,189) scale(0.014,0.014)"><g transform="" style="fill: rgb(48, 191, 57);">
<path d="M250,0c138.077,0,250,111.93,250,250c0,138.077-111.923,250-250,250C111.93,500,0,388.077,0,250C0,111.93,111.93,0,250,0z"
	/>
</g></g><g transform="translate(77,189) scale(0.014,0.014)"><g transform="" style="fill: rgb(48, 191, 57);">
<path d="M250,0c138.077,0,250,111.93,250,250c0,138.077-111.923,250-250,250C111.93,500,0,388.077,0,250C0,111.93,111.93,0,250,0z"
	/>
</g></g><g transform="translate(84,189) scale(0.014,0.014)"><g transform="" style="fill: rgb(48, 191, 57);">
<path d="M250,0c138.077,0,250,111.93,250,250c0,138.077-111.923,250-250,250C111.93,500,0,388.077,0,250C0,111.93,111.93,0,250,0z"
	/>
</g></g><g transform="translate(91,189) scale(0.014,0.014)"><g transform="" style="fill: rgb(48, 191, 57);">
<path d="M250,0c138.077,0,250,111.93,250,250c0,138.077-111.923,250-250,250C111.93,500,0,388.077,0,250C0,111.93,111.93,0,250,0z"
	/>
</g></g><g transform="translate(98,189) scale(0.014,0.014)"><g transform="" style="fill: rgb(48, 191, 57);">
<path d="M250,0c138.077,0,250,111.93,250,250c0,138.077-111.923,250-250,250C111.93,500,0,388.077,0,250C0,111.93,111.93,0,250,0z"
	/>
</g></g><g transform="translate(119,189) scale(0.014,0.014)"><g transform="" style="fill: rgb(48, 191, 57);">
<path d="M250,0c138.077,0,250,111.93,250,250c0,138.077-111.923,250-250,250C111.93,500,0,388.077,0,250C0,111.93,111.93,0,250,0z"
	/>
</g></g><g transform="translate(126,189) scale(0.014,0.014)"><g transform="" style="fill: rgb(48, 191, 57);">
<path d="M250,0c138.077,0,250,111.93,250,250c0,138.077-111.923,250-250,250C111.93,500,0,388.077,0,250C0,111.93,111.93,0,250,0z"
	/>
</g></g><g transform="translate(133,189) scale(0.014,0.014)"><g transform="" style="fill: rgb(48, 191, 57);">
<path d="M250,0c138.077,0,250,111.93,250,250c0,138.077-111.923,250-250,250C111.93,500,0,388.077,0,250C0,111.93,111.93,0,250,0z"
	/>
</g></g><g transform="translate(168,189) scale(0.014,0.014)"><g transform="" style="fill: rgb(48, 191, 57);">
<path d="M250,0c138.077,0,250,111.93,250,250c0,138.077-111.923,250-250,250C111.93,500,0,388.077,0,250C0,111.93,111.93,0,250,0z"
	/>
</g></g><g transform="translate(196,189) scale(0.014,0.014)"><g transform="" style="fill: rgb(48, 191, 57);">
<path d="M250,0c138.077,0,250,111.93,250,250c0,138.077-111.923,250-250,250C111.93,500,0,388.077,0,250C0,111.93,111.93,0,250,0z"
	/>
</g></g><g transform="translate(210,189) scale(0.014,0.014)"><g transform="" style="fill: rgb(48, 191, 57);">
<path d="M250,0c138.077,0,250,111.93,250,250c0,138.077-111.923,250-250,250C111.93,500,0,388.077,0,250C0,111.93,111.93,0,250,0z"
	/>
</g></g><g transform="translate(217,189) scale(0.014,0.014)"><g transform="" style="fill: rgb(48, 191, 57);">
<path d="M250,0c138.077,0,250,111.93,250,250c0,138.077-111.923,250-250,250C111.93,500,0,388.077,0,250C0,111.93,111.93,0,250,0z"
	/>
</g></g><g transform="translate(224,189) scale(0.014,0.014)"><g transform="" style="fill: rgb(48, 191, 57);">
<path d="M250,0c138.077,0,250,111.93,250,250c0,138.077-111.923,250-250,250C111.93,500,0,388.077,0,250C0,111.93,111.93,0,250,0z"
	/>
</g></g><g transform="translate(70,196) scale(0.014,0.014)"><g transform="" style="fill: rgb(48, 191, 57);">
<path d="M250,0c138.077,0,250,111.93,250,250c0,138.077-111.923,250-250,250C111.93,500,0,388.077,0,250C0,111.93,111.93,0,250,0z"
	/>
</g></g><g transform="translate(77,196) scale(0.014,0.014)"><g transform="" style="fill: rgb(48, 191, 57);">
<path d="M250,0c138.077,0,250,111.93,250,250c0,138.077-111.923,250-250,250C111.93,500,0,388.077,0,250C0,111.93,111.93,0,250,0z"
	/>
</g></g><g transform="translate(112,196) scale(0.014,0.014)"><g transform="" style="fill: rgb(48, 191, 57);">
<path d="M250,0c138.077,0,250,111.93,250,250c0,138.077-111.923,250-250,250C111.93,500,0,388.077,0,250C0,111.93,111.93,0,250,0z"
	/>
</g></g><g transform="translate(119,196) scale(0.014,0.014)"><g transform="" style="fill: rgb(48, 191, 57);">
<path d="M250,0c138.077,0,250,111.93,250,250c0,138.077-111.923,250-250,250C111.93,500,0,388.077,0,250C0,111.93,111.93,0,250,0z"
	/>
</g></g><g transform="translate(154,196) scale(0.014,0.014)"><g transform="" style="fill: rgb(48, 191, 57);">
<path d="M250,0c138.077,0,250,111.93,250,250c0,138.077-111.923,250-250,250C111.93,500,0,388.077,0,250C0,111.93,111.93,0,250,0z"
	/>
</g></g><g transform="translate(161,196) scale(0.014,0.014)"><g transform="" style="fill: rgb(48, 191, 57);">
<path d="M250,0c138.077,0,250,111.93,250,250c0,138.077-111.923,250-250,250C111.93,500,0,388.077,0,250C0,111.93,111.93,0,250,0z"
	/>
</g></g><g transform="translate(168,196) scale(0.014,0.014)"><g transform="" style="fill: rgb(48, 191, 57);">
<path d="M250,0c138.077,0,250,111.93,250,250c0,138.077-111.923,250-250,250C111.93,500,0,388.077,0,250C0,111.93,111.93,0,250,0z"
	/>
</g></g><g transform="translate(175,196) scale(0.014,0.014)"><g transform="" style="fill: rgb(48, 191, 57);">
<path d="M250,0c138.077,0,250,111.93,250,250c0,138.077-111.923,250-250,250C111.93,500,0,388.077,0,250C0,111.93,111.93,0,250,0z"
	/>
</g></g><g transform="translate(182,196) scale(0.014,0.014)"><g transform="" style="fill: rgb(48, 191, 57);">
<path d="M250,0c138.077,0,250,111.93,250,250c0,138.077-111.923,250-250,250C111.93,500,0,388.077,0,250C0,111.93,111.93,0,250,0z"
	/>
</g></g><g transform="translate(189,196) scale(0.014,0.014)"><g transform="" style="fill: rgb(48, 191, 57);">
<path d="M250,0c138.077,0,250,111.93,250,250c0,138.077-111.923,250-250,250C111.93,500,0,388.077,0,250C0,111.93,111.93,0,250,0z"
	/>
</g></g><g transform="translate(196,196) scale(0.014,0.014)"><g transform="" style="fill: rgb(48, 191, 57);">
<path d="M250,0c138.077,0,250,111.93,250,250c0,138.077-111.923,250-250,250C111.93,500,0,388.077,0,250C0,111.93,111.93,0,250,0z"
	/>
</g></g><g transform="translate(210,196) scale(0.014,0.014)"><g transform="" style="fill: rgb(48, 191, 57);">
<path d="M250,0c138.077,0,250,111.93,250,250c0,138.077-111.923,250-250,250C111.93,500,0,388.077,0,250C0,111.93,111.93,0,250,0z"
	/>
</g></g><g transform="translate(217,196) scale(0.014,0.014)"><g transform="" style="fill: rgb(48, 191, 57);">
<path d="M250,0c138.077,0,250,111.93,250,250c0,138.077-111.923,250-250,250C111.93,500,0,388.077,0,250C0,111.93,111.93,0,250,0z"
	/>
</g></g><g transform="translate(56,203) scale(0.014,0.014)"><g transform="" style="fill: rgb(48, 191, 57);">
<path d="M250,0c138.077,0,250,111.93,250,250c0,138.077-111.923,250-250,250C111.93,500,0,388.077,0,250C0,111.93,111.93,0,250,0z"
	/>
</g></g><g transform="translate(63,203) scale(0.014,0.014)"><g transform="" style="fill: rgb(48, 191, 57);">
<path d="M250,0c138.077,0,250,111.93,250,250c0,138.077-111.923,250-250,250C111.93,500,0,388.077,0,250C0,111.93,111.93,0,250,0z"
	/>
</g></g><g transform="translate(70,203) scale(0.014,0.014)"><g transform="" style="fill: rgb(48, 191, 57);">
<path d="M250,0c138.077,0,250,111.93,250,250c0,138.077-111.923,250-250,250C111.93,500,0,388.077,0,250C0,111.93,111.93,0,250,0z"
	/>
</g></g><g transform="translate(77,203) scale(0.014,0.014)"><g transform="" style="fill: rgb(48, 191, 57);">
<path d="M250,0c138.077,0,250,111.93,250,250c0,138.077-111.923,250-250,250C111.93,500,0,388.077,0,250C0,111.93,111.93,0,250,0z"
	/>
</g></g><g transform="translate(84,203) scale(0.014,0.014)"><g transform="" style="fill: rgb(48, 191, 57);">
<path d="M250,0c138.077,0,250,111.93,250,250c0,138.077-111.923,250-250,250C111.93,500,0,388.077,0,250C0,111.93,111.93,0,250,0z"
	/>
</g></g><g transform="translate(91,203) scale(0.014,0.014)"><g transform="" style="fill: rgb(48, 191, 57);">
<path d="M250,0c138.077,0,250,111.93,250,250c0,138.077-111.923,250-250,250C111.93,500,0,388.077,0,250C0,111.93,111.93,0,250,0z"
	/>
</g></g><g transform="translate(98,203) scale(0.014,0.014)"><g transform="" style="fill: rgb(48, 191, 57);">
<path d="M250,0c138.077,0,250,111.93,250,250c0,138.077-111.923,250-250,250C111.93,500,0,388.077,0,250C0,111.93,111.93,0,250,0z"
	/>
</g></g><g transform="translate(126,203) scale(0.014,0.014)"><g transform="" style="fill: rgb(48, 191, 57);">
<path d="M250,0c138.077,0,250,111.93,250,250c0,138.077-111.923,250-250,250C111.93,500,0,388.077,0,250C0,111.93,111.93,0,250,0z"
	/>
</g></g><g transform="translate(147,203) scale(0.014,0.014)"><g transform="" style="fill: rgb(48, 191, 57);">
<path d="M250,0c138.077,0,250,111.93,250,250c0,138.077-111.923,250-250,250C111.93,500,0,388.077,0,250C0,111.93,111.93,0,250,0z"
	/>
</g></g><g transform="translate(154,203) scale(0.014,0.014)"><g transform="" style="fill: rgb(48, 191, 57);">
<path d="M250,0c138.077,0,250,111.93,250,250c0,138.077-111.923,250-250,250C111.93,500,0,388.077,0,250C0,111.93,111.93,0,250,0z"
	/>
</g></g><g transform="translate(161,203) scale(0.014,0.014)"><g transform="" style="fill: rgb(48, 191, 57);">
<path d="M250,0c138.077,0,250,111.93,250,250c0,138.077-111.923,250-250,250C111.93,500,0,388.077,0,250C0,111.93,111.93,0,250,0z"
	/>
</g></g><g transform="translate(189,203) scale(0.014,0.014)"><g transform="" style="fill: rgb(48, 191, 57);">
<path d="M250,0c138.077,0,250,111.93,250,250c0,138.077-111.923,250-250,250C111.93,500,0,388.077,0,250C0,111.93,111.93,0,250,0z"
	/>
</g></g><g transform="translate(203,203) scale(0.014,0.014)"><g transform="" style="fill: rgb(48, 191, 57);">
<path d="M250,0c138.077,0,250,111.93,250,250c0,138.077-111.923,250-250,250C111.93,500,0,388.077,0,250C0,111.93,111.93,0,250,0z"
	/>
</g></g><g transform="translate(210,203) scale(0.014,0.014)"><g transform="" style="fill: rgb(48, 191, 57);">
<path d="M250,0c138.077,0,250,111.93,250,250c0,138.077-111.923,250-250,250C111.93,500,0,388.077,0,250C0,111.93,111.93,0,250,0z"
	/>
</g></g><g transform="translate(56,210) scale(0.014,0.014)"><g transform="" style="fill: rgb(48, 191, 57);">
<path d="M250,0c138.077,0,250,111.93,250,250c0,138.077-111.923,250-250,250C111.93,500,0,388.077,0,250C0,111.93,111.93,0,250,0z"
	/>
</g></g><g transform="translate(77,210) scale(0.014,0.014)"><g transform="" style="fill: rgb(48, 191, 57);">
<path d="M250,0c138.077,0,250,111.93,250,250c0,138.077-111.923,250-250,250C111.93,500,0,388.077,0,250C0,111.93,111.93,0,250,0z"
	/>
</g></g><g transform="translate(84,210) scale(0.014,0.014)"><g transform="" style="fill: rgb(48, 191, 57);">
<path d="M250,0c138.077,0,250,111.93,250,250c0,138.077-111.923,250-250,250C111.93,500,0,388.077,0,250C0,111.93,111.93,0,250,0z"
	/>
</g></g><g transform="translate(91,210) scale(0.014,0.014)"><g transform="" style="fill: rgb(48, 191, 57);">
<path d="M250,0c138.077,0,250,111.93,250,250c0,138.077-111.923,250-250,250C111.93,500,0,388.077,0,250C0,111.93,111.93,0,250,0z"
	/>
</g></g><g transform="translate(105,210) scale(0.014,0.014)"><g transform="" style="fill: rgb(48, 191, 57);">
<path d="M250,0c138.077,0,250,111.93,250,250c0,138.077-111.923,250-250,250C111.93,500,0,388.077,0,250C0,111.93,111.93,0,250,0z"
	/>
</g></g><g transform="translate(112,210) scale(0.014,0.014)"><g transform="" style="fill: rgb(48, 191, 57);">
<path d="M250,0c138.077,0,250,111.93,250,250c0,138.077-111.923,250-250,250C111.93,500,0,388.077,0,250C0,111.93,111.93,0,250,0z"
	/>
</g></g><g transform="translate(140,210) scale(0.014,0.014)"><g transform="" style="fill: rgb(48, 191, 57);">
<path d="M250,0c138.077,0,250,111.93,250,250c0,138.077-111.923,250-250,250C111.93,500,0,388.077,0,250C0,111.93,111.93,0,250,0z"
	/>
</g></g><g transform="translate(154,210) scale(0.014,0.014)"><g transform="" style="fill: rgb(48, 191, 57);">
<path d="M250,0c138.077,0,250,111.93,250,250c0,138.077-111.923,250-250,250C111.93,500,0,388.077,0,250C0,111.93,111.93,0,250,0z"
	/>
</g></g><g transform="translate(161,210) scale(0.014,0.014)"><g transform="" style="fill: rgb(48, 191, 57);">
<path d="M250,0c138.077,0,250,111.93,250,250c0,138.077-111.923,250-250,250C111.93,500,0,388.077,0,250C0,111.93,111.93,0,250,0z"
	/>
</g></g><g transform="translate(168,210) scale(0.014,0.014)"><g transform="" style="fill: rgb(48, 191, 57);">
<path d="M250,0c138.077,0,250,111.93,250,250c0,138.077-111.923,250-250,250C111.93,500,0,388.077,0,250C0,111.93,111.93,0,250,0z"
	/>
</g></g><g transform="translate(175,210) scale(0.014,0.014)"><g transform="" style="fill: rgb(48, 191, 57);">
<path d="M250,0c138.077,0,250,111.93,250,250c0,138.077-111.923,250-250,250C111.93,500,0,388.077,0,250C0,111.93,111.93,0,250,0z"
	/>
</g></g><g transform="translate(182,210) scale(0.014,0.014)"><g transform="" style="fill: rgb(48, 191, 57);">
<path d="M250,0c138.077,0,250,111.93,250,250c0,138.077-111.923,250-250,250C111.93,500,0,388.077,0,250C0,111.93,111.93,0,250,0z"
	/>
</g></g><g transform="translate(63,217) scale(0.014,0.014)"><g transform="" style="fill: rgb(48, 191, 57);">
<path d="M250,0c138.077,0,250,111.93,250,250c0,138.077-111.923,250-250,250C111.93,500,0,388.077,0,250C0,111.93,111.93,0,250,0z"
	/>
</g></g><g transform="translate(77,217) scale(0.014,0.014)"><g transform="" style="fill: rgb(48, 191, 57);">
<path d="M250,0c138.077,0,250,111.93,250,250c0,138.077-111.923,250-250,250C111.93,500,0,388.077,0,250C0,111.93,111.93,0,250,0z"
	/>
</g></g><g transform="translate(84,217) scale(0.014,0.014)"><g transform="" style="fill: rgb(48, 191, 57);">
<path d="M250,0c138.077,0,250,111.93,250,250c0,138.077-111.923,250-250,250C111.93,500,0,388.077,0,250C0,111.93,111.93,0,250,0z"
	/>
</g></g><g transform="translate(98,217) scale(0.014,0.014)"><g transform="" style="fill: rgb(48, 191, 57);">
<path d="M250,0c138.077,0,250,111.93,250,250c0,138.077-111.923,250-250,250C111.93,500,0,388.077,0,250C0,111.93,111.93,0,250,0z"
	/>
</g></g><g transform="translate(105,217) scale(0.014,0.014)"><g transform="" style="fill: rgb(48, 191, 57);">
<path d="M250,0c138.077,0,250,111.93,250,250c0,138.077-111.923,250-250,250C111.93,500,0,388.077,0,250C0,111.93,111.93,0,250,0z"
	/>
</g></g><g transform="translate(112,217) scale(0.014,0.014)"><g transform="" style="fill: rgb(48, 191, 57);">
<path d="M250,0c138.077,0,250,111.93,250,250c0,138.077-111.923,250-250,250C111.93,500,0,388.077,0,250C0,111.93,111.93,0,250,0z"
	/>
</g></g><g transform="translate(133,217) scale(0.014,0.014)"><g transform="" style="fill: rgb(48, 191, 57);">
<path d="M250,0c138.077,0,250,111.93,250,250c0,138.077-111.923,250-250,250C111.93,500,0,388.077,0,250C0,111.93,111.93,0,250,0z"
	/>
</g></g><g transform="translate(154,217) scale(0.014,0.014)"><g transform="" style="fill: rgb(48, 191, 57);">
<path d="M250,0c138.077,0,250,111.93,250,250c0,138.077-111.923,250-250,250C111.93,500,0,388.077,0,250C0,111.93,111.93,0,250,0z"
	/>
</g></g><g transform="translate(161,217) scale(0.014,0.014)"><g transform="" style="fill: rgb(48, 191, 57);">
<path d="M250,0c138.077,0,250,111.93,250,250c0,138.077-111.923,250-250,250C111.93,500,0,388.077,0,250C0,111.93,111.93,0,250,0z"
	/>
</g></g><g transform="translate(168,217) scale(0.014,0.014)"><g transform="" style="fill: rgb(48, 191, 57);">
<path d="M250,0c138.077,0,250,111.93,250,250c0,138.077-111.923,250-250,250C111.93,500,0,388.077,0,250C0,111.93,111.93,0,250,0z"
	/>
</g></g><g transform="translate(175,217) scale(0.014,0.014)"><g transform="" style="fill: rgb(48, 191, 57);">
<path d="M250,0c138.077,0,250,111.93,250,250c0,138.077-111.923,250-250,250C111.93,500,0,388.077,0,250C0,111.93,111.93,0,250,0z"
	/>
</g></g><g transform="translate(182,217) scale(0.014,0.014)"><g transform="" style="fill: rgb(48, 191, 57);">
<path d="M250,0c138.077,0,250,111.93,250,250c0,138.077-111.923,250-250,250C111.93,500,0,388.077,0,250C0,111.93,111.93,0,250,0z"
	/>
</g></g><g transform="translate(210,217) scale(0.014,0.014)"><g transform="" style="fill: rgb(48, 191, 57);">
<path d="M250,0c138.077,0,250,111.93,250,250c0,138.077-111.923,250-250,250C111.93,500,0,388.077,0,250C0,111.93,111.93,0,250,0z"
	/>
</g></g><g transform="translate(224,217) scale(0.014,0.014)"><g transform="" style="fill: rgb(48, 191, 57);">
<path d="M250,0c138.077,0,250,111.93,250,250c0,138.077-111.923,250-250,250C111.93,500,0,388.077,0,250C0,111.93,111.93,0,250,0z"
	/>
</g></g><g transform="translate(70,224) scale(0.014,0.014)"><g transform="" style="fill: rgb(48, 191, 57);">
<path d="M250,0c138.077,0,250,111.93,250,250c0,138.077-111.923,250-250,250C111.93,500,0,388.077,0,250C0,111.93,111.93,0,250,0z"
	/>
</g></g><g transform="translate(77,224) scale(0.014,0.014)"><g transform="" style="fill: rgb(48, 191, 57);">
<path d="M250,0c138.077,0,250,111.93,250,250c0,138.077-111.923,250-250,250C111.93,500,0,388.077,0,250C0,111.93,111.93,0,250,0z"
	/>
</g></g><g transform="translate(91,224) scale(0.014,0.014)"><g transform="" style="fill: rgb(48, 191, 57);">
<path d="M250,0c138.077,0,250,111.93,250,250c0,138.077-111.923,250-250,250C111.93,500,0,388.077,0,250C0,111.93,111.93,0,250,0z"
	/>
</g></g><g transform="translate(98,224) scale(0.014,0.014)"><g transform="" style="fill: rgb(48, 191, 57);">
<path d="M250,0c138.077,0,250,111.93,250,250c0,138.077-111.923,250-250,250C111.93,500,0,388.077,0,250C0,111.93,111.93,0,250,0z"
	/>
</g></g><g transform="translate(105,224) scale(0.014,0.014)"><g transform="" style="fill: rgb(48, 191, 57);">
<path d="M250,0c138.077,0,250,111.93,250,250c0,138.077-111.923,250-250,250C111.93,500,0,388.077,0,250C0,111.93,111.93,0,250,0z"
	/>
</g></g><g transform="translate(126,224) scale(0.014,0.014)"><g transform="" style="fill: rgb(48, 191, 57);">
<path d="M250,0c138.077,0,250,111.93,250,250c0,138.077-111.923,250-250,250C111.93,500,0,388.077,0,250C0,111.93,111.93,0,250,0z"
	/>
</g></g><g transform="translate(140,224) scale(0.014,0.014)"><g transform="" style="fill: rgb(48, 191, 57);">
<path d="M250,0c138.077,0,250,111.93,250,250c0,138.077-111.923,250-250,250C111.93,500,0,388.077,0,250C0,111.93,111.93,0,250,0z"
	/>
</g></g><g transform="translate(147,224) scale(0.014,0.014)"><g transform="" style="fill: rgb(48, 191, 57);">
<path d="M250,0c138.077,0,250,111.93,250,250c0,138.077-111.923,250-250,250C111.93,500,0,388.077,0,250C0,111.93,111.93,0,250,0z"
	/>
</g></g><g transform="translate(189,224) scale(0.014,0.014)"><g transform="" style="fill: rgb(48, 191, 57);">
<path d="M250,0c138.077,0,250,111.93,250,250c0,138.077-111.923,250-250,250C111.93,500,0,388.077,0,250C0,111.93,111.93,0,250,0z"
	/>
</g></g><g transform="translate(196,224) scale(0.014,0.014)"><g transform="" style="fill: rgb(48, 191, 57);">
<path d="M250,0c138.077,0,250,111.93,250,250c0,138.077-111.923,250-250,250C111.93,500,0,388.077,0,250C0,111.93,111.93,0,250,0z"
	/>
</g></g><g transform="translate(0,0) scale(0.49, 0.49)"><g transform=" translate(0,100) scale(1,-1) " style="fill: rgb(48, 191, 57);">
<g>
</g>
<g>
	<path fill="none" d="M15.02,34.145L15.004,85H66.25C76.589,85,85,76.414,85,65.86V15H33.78C23.436,15,15.02,23.586,15.02,34.145z"
		/>
	<path d="M66.25,0H33.78C15.16,0,0.02,15.32,0.02,34.14L0,100h66.25C84.86,100,100,84.68,100,65.86V34.14V0H66.25z M85,65.86
		C85,76.414,76.589,85,66.25,85H15.004l0.016-50.855C15.02,23.586,23.436,15,33.78,15H85V65.86z"/>
</g>
</g></g><g transform="translate(182,0) scale(0.49, 0.49)"><g transform="" style="fill: rgb(48, 191, 57);">
<g>
</g>
<g>
	<path fill="none" d="M15.02,34.145L15.004,85H66.25C76.589,85,85,76.414,85,65.86V15H33.78C23.436,15,15.02,23.586,15.02,34.145z"
		/>
	<path d="M66.25,0H33.78C15.16,0,0.02,15.32,0.02,34.14L0,100h66.25C84.86,100,100,84.68,100,65.86V34.14V0H66.25z M85,65.86
		C85,76.414,76.589,85,66.25,85H15.004l0.016-50.855C15.02,23.586,23.436,15,33.78,15H85V65.86z"/>
</g>
</g></g><g transform="translate(0,182) scale(0.49, 0.49)"><g transform="" style="fill: rgb(48, 191, 57);">
<g>
</g>
<g>
	<path fill="none" d="M15.02,34.145L15.004,85H66.25C76.589,85,85,76.414,85,65.86V15H33.78C23.436,15,15.02,23.586,15.02,34.145z"
		/>
	<path d="M66.25,0H33.78C15.16,0,0.02,15.32,0.02,34.14L0,100h66.25C84.86,100,100,84.68,100,65.86V34.14V0H66.25z M85,65.86
		C85,76.414,76.589,85,66.25,85H15.004l0.016-50.855C15.02,23.586,23.436,15,33.78,15H85V65.86z"/>
</g>
</g></g><g transform="translate(14,14) scale(0.20588235294118, 0.20588235294118)"><g transform="" style="fill: rgb(48, 191, 57);">
<circle cx="50" cy="50" r="50"/>
</g></g><g transform="translate(196,14) scale(0.20588235294118, 0.20588235294118)"><g transform="" style="fill: rgb(48, 191, 57);">
<circle cx="50" cy="50" r="50"/>
</g></g><g transform="translate(14,196) scale(0.20588235294118, 0.20588235294118)"><g transform="" style="fill: rgb(48, 191, 57);">
<circle cx="50" cy="50" r="50"/>
</g></g><g transform="translate(77,77) scale(0.077,0.077)" width="77" height="77"><svg
   xmlns:dc="http://purl.org/dc/elements/1.1/"
   xmlns:cc="http://creativecommons.org/ns#"
   xmlns:rdf="http://www.w3.org/1999/02/22-rdf-syntax-ns#"
   xmlns:svg="http://www.w3.org/2000/svg"
   xmlns="http://www.w3.org/2000/svg"
   version="1.1"
   width="1000"
   height="1000"
   viewBox="0 0 1000 1000"
   id="svg6742">
  <defs
     id="defs6744" />
  <metadata
     id="metadata6747">
    <rdf:RDF>
      <cc:Work
         rdf:about="">
        <dc:format>image/svg+xml</dc:format>
        <dc:type
           rdf:resource="http://purl.org/dc/dcmitype/StillImage" />
        <dc:title></dc:title>
      </cc:Work>
    </rdf:RDF>
  </metadata>
  <g
     transform="translate(0,-52.362183)"
     id="layer1">
    <g
       transform="matrix(7.2949439,0,0,7.2949439,2134.0674,1337.574)"
       id="g7102">
      <path
         d="m -292.54062,-107.63844 c 0,-37.85375 30.6875,-68.54 68.54125,-68.54 37.85375,0 68.54,30.68625 68.54,68.54 0,37.854997 -30.68625,68.541247 -68.54,68.541247 -37.85375,0 -68.54125,-30.68625 -68.54125,-68.541247"
         id="path3834"
         style="fill:#30bf39;fill-opacity:1;fill-rule:nonzero;stroke:none" />
      <path
         d="m -220.81062,-147.26844 c -20.64875,0 -37.39,16.74 -37.39,37.3925 0,7.065 1.96125,13.671247 5.36625,19.308747 l -6.75,20.06 20.70125,-6.62625 c 5.35875,2.96125 11.51875,4.65 18.0725,4.65 20.655,0 37.39625,-16.7425 37.39625,-37.392497 0,-20.6525 -16.74125,-37.3925 -37.39625,-37.3925 z m 0,68.521247 c -6.31875,0 -12.20875,-1.89625 -17.1225,-5.14875 l -11.96375,3.83 3.88875,-11.56 c -3.72625,-5.13125 -5.92625,-11.436247 -5.92625,-18.249997 0,-17.1675 13.9625,-31.13 31.12375,-31.13 17.16625,0 31.13,13.9625 31.13,31.13 0,17.162497 -13.96375,31.128747 -31.13,31.128747 z m 17.53375,-22.632497 c -0.93625,-0.51375 -5.54125,-2.99875 -6.40375,-3.34875 -0.8625,-0.3525 -1.495,-0.53375 -2.16875,0.3975 -0.66875,0.92875 -2.5825,3.01125 -3.15875,3.62625 -0.5825,0.61875 -1.14125,0.67625 -2.08,0.16125 -0.93375,-0.5125 -3.97375,-1.63625 -7.4975,-5.025 -2.7425,-2.635 -4.54,-5.83125 -5.06125,-6.8075 -0.52375,-0.97625 -0.004,-1.47375 0.49125,-1.93125 0.44625,-0.41375 0.9975,-1.08125 1.49625,-1.62 0.495,-0.5375 0.67,-0.93125 1.0125,-1.555 0.34125,-0.62375 0.20375,-1.1875 -0.0187,-1.67375 -0.22,-0.48625 -1.9525,-5.255 -2.675,-7.19625 -0.725,-1.93875 -1.53125,-1.65125 -2.0875,-1.67375 -0.5575,-0.0187 -1.19,-0.1225 -1.82625,-0.1475 -0.63875,-0.0225 -1.68125,0.1775 -2.58875,1.09875 -0.9125,0.92125 -3.46625,3.13875 -3.64,7.83625 -0.1775,4.695 3.0725,9.3625 3.52625,10.015 0.45375,0.65625 6.205,10.836247 15.76125,15.021247 9.5625,4.1875 9.61375,2.91125 11.36625,2.8175 1.75625,-0.0937 5.73375,-2.1 6.61375,-4.2975 0.88,-2.1975 0.95,-4.10875 0.7275,-4.514997 -0.225,-0.4075 -0.8525,-0.67 -1.78875,-1.1825"
         id="path3836"
         style="fill:#f1f2f2;fill-opacity:1;fill-rule:evenodd;stroke:none" />
    </g>
  </g>
</svg>
</g></g></svg>